<svg xmlns="http://www.w3.org/2000/svg" width="24" height="24" viewBox="0 0 24 24" fill="none">
                        <g clip-path="url(#clip0_22_69)">
                            <path
                                d="M21.9844 6.62853H6.84338V4.53955C6.84338 4.44009 6.80387 4.34471 6.73354 4.27439C6.66321 4.20406 6.56783 4.16455 6.46838 4.16455H0.375C0.275544 4.16455 0.180161 4.20406 0.109835 4.27439C0.0395088 4.34471 0 4.44009 0 4.53955L0 6.03346C0 6.13291 0.0395088 6.2283 0.109835 6.29862C0.180161 6.36895 0.275544 6.40846 0.375 6.40846H4.59942V8.02199H3.8152C3.71575 8.02199 3.62036 8.0615 3.55004 8.13182C3.47971 8.20215 3.4402 8.29753 3.4402 8.39699V11.3853C3.4402 11.4847 3.47971 11.5801 3.55004 11.6504C3.62036 11.7208 3.71575 11.7603 3.8152 11.7603H4.59942V12.6626H3.8152C3.71575 12.6626 3.62036 12.7021 3.55004 12.7724C3.47971 12.8428 3.4402 12.9382 3.4402 13.0376V16.0259C3.4402 16.1253 3.47971 16.2207 3.55004 16.2911C3.62036 16.3614 3.71575 16.4009 3.8152 16.4009H4.59942V19.4604C4.59942 19.5599 4.63893 19.6553 4.70926 19.7256C4.77958 19.7959 4.87497 19.8354 4.97442 19.8354H6.46838C6.56783 19.8354 6.66321 19.7959 6.73354 19.7256C6.80387 19.6553 6.84338 19.5599 6.84338 19.4604V17.7943H7.5878V19.0418C7.5878 19.1413 7.62731 19.2367 7.69763 19.307C7.76796 19.3773 7.86334 19.4168 7.9628 19.4168H17.7899C17.8894 19.4168 17.9847 19.3773 18.0551 19.307C18.1254 19.2367 18.1649 19.1413 18.1649 19.0418V17.7943H21.9844C22.5188 17.7937 23.0311 17.5811 23.409 17.2033C23.7868 16.8254 23.9994 16.3131 24 15.7787V8.6443C23.9994 8.10989 23.7869 7.59752 23.409 7.21962C23.0311 6.84172 22.5188 6.62914 21.9844 6.62853ZM4.1902 11.0103V8.77199H4.59942V11.0103H4.1902ZM4.1902 15.6509V13.4126H4.59942V15.6509H4.1902ZM6.09333 19.0854H5.34942V6.03346C5.34942 5.934 5.30991 5.83862 5.23959 5.76829C5.16926 5.69797 5.07388 5.65846 4.97442 5.65846H0.75V4.91455H6.09338L6.09333 19.0854ZM6.84333 7.37853H10.0191C9.25366 7.93076 8.63034 8.65692 8.2005 9.49722C7.77066 10.3375 7.54659 11.2679 7.54675 12.2118C7.54692 13.1556 7.7713 14.0859 8.20142 14.9261C8.63155 15.7662 9.25511 16.4922 10.0208 17.0442H6.84338L6.84333 7.37853ZM17.4149 18.6668H8.3378V17.7943H17.4149V18.6668ZM23.25 15.7787C23.2496 16.1142 23.1162 16.4359 22.8789 16.6732C22.6416 16.9105 22.3199 17.0439 21.9844 17.0443H11.5266C11.5005 17.0234 11.4717 17.006 11.441 16.9927C10.5009 16.5871 9.7012 15.9133 9.14198 15.0556C8.58275 14.1979 8.28881 13.1943 8.2969 12.1705C8.30499 11.1466 8.61477 10.1478 9.18748 9.29906C9.76019 8.4503 10.5704 7.78923 11.5169 7.3985C11.5307 7.39273 11.5441 7.38613 11.5571 7.37872H21.9844C22.3199 7.37909 22.6416 7.51256 22.8789 7.74983C23.1162 7.9871 23.2496 8.3088 23.25 8.64435V15.7787ZM12.3652 8.93544C11.7173 8.93543 11.0839 9.12756 10.5452 9.48752C10.0064 9.84749 9.58655 10.3591 9.33859 10.9577C9.09063 11.5563 9.02575 12.215 9.15215 12.8505C9.27854 13.486 9.59055 14.0697 10.0487 14.5279C10.5069 14.9861 11.0906 15.2981 11.7261 15.4245C12.3616 15.5509 13.0202 15.486 13.6189 15.2381C14.2175 14.9901 14.7291 14.5702 15.0891 14.0315C15.4491 13.4928 15.6412 12.8594 15.6412 12.2114C15.6402 11.3429 15.2947 10.5102 14.6806 9.89607C14.0665 9.28192 13.2338 8.93645 12.3652 8.93544ZM13.8656 10.1808L12.8503 11.1961C12.6989 11.1237 12.5332 11.0861 12.3653 11.0861C12.1975 11.0861 12.0318 11.1237 11.8804 11.1961L10.865 10.1807C11.2991 9.85906 11.8251 9.68542 12.3653 9.68542C12.9056 9.68542 13.4316 9.85906 13.8656 10.1807V10.1808ZM11.9901 12.2114C11.9901 12.1372 12.0121 12.0647 12.0533 12.0029C12.0945 11.9412 12.1532 11.8931 12.2217 11.8647C12.2903 11.8363 12.3658 11.8289 12.4386 11.8434C12.5114 11.8579 12.5782 11.8936 12.6307 11.9461C12.6832 11.9986 12.7189 12.0654 12.7334 12.1382C12.7479 12.211 12.7405 12.2865 12.7121 12.3551C12.6837 12.4236 12.6356 12.4822 12.5738 12.5235C12.5121 12.5647 12.4396 12.5867 12.3653 12.5867C12.2658 12.5866 12.1704 12.5471 12.1001 12.4767C12.0297 12.4063 11.9901 12.311 11.99 12.2114H11.9901ZM9.83934 12.2114C9.83875 11.671 10.0124 11.1448 10.3346 10.7109L11.35 11.7263C11.2776 11.8777 11.24 12.0434 11.24 12.2112C11.24 12.3791 11.2776 12.5447 11.35 12.6961L10.3346 13.7116C10.0124 13.2778 9.83863 12.7518 9.83906 12.2114H9.83934ZM10.865 14.2421L11.8804 13.2267C12.0318 13.2991 12.1975 13.3367 12.3653 13.3367C12.5332 13.3367 12.6989 13.2991 12.8503 13.2267L13.8656 14.2421C13.4315 14.5638 12.9056 14.7374 12.3653 14.7374C11.8251 14.7374 11.2991 14.5638 10.865 14.2421ZM14.396 13.7117L13.3806 12.6963C13.453 12.5449 13.4906 12.3792 13.4906 12.2114C13.4906 12.0436 13.453 11.8779 13.3806 11.7265L14.396 10.7112C14.7177 11.1452 14.8913 11.6712 14.8913 12.2114C14.8913 12.7517 14.7177 13.2777 14.396 13.7117ZM19.5252 8.93544C18.8773 8.93543 18.2439 9.12756 17.7052 9.48752C17.1664 9.84749 16.7465 10.3591 16.4986 10.9577C16.2506 11.5563 16.1857 12.215 16.3121 12.8505C16.4385 13.486 16.7505 14.0697 17.2087 14.5279C17.6668 14.9861 18.2506 15.2981 18.886 15.4245C19.5215 15.5509 20.1802 15.486 20.7788 15.2381C21.3774 14.9901 21.8891 14.5702 22.2491 14.0315C22.609 13.4928 22.8012 12.8594 22.8012 12.2114C22.8002 11.3429 22.4547 10.5102 21.8406 9.89607C21.2264 9.28192 20.3938 8.93645 19.5252 8.93544ZM21.0255 10.1807L20.0101 11.1961C19.8587 11.1237 19.693 11.0861 19.5252 11.0861C19.3574 11.0861 19.1917 11.1237 19.0402 11.1961L18.0249 10.1808C18.459 9.85911 18.9849 9.68546 19.5252 9.68546C20.0655 9.68546 20.5914 9.85911 21.0255 10.1808V10.1807ZM19.1499 12.2114C19.1499 12.1372 19.1719 12.0646 19.2131 12.0029C19.2544 11.9412 19.313 11.8931 19.3816 11.8646C19.4501 11.8362 19.5256 11.8288 19.5984 11.8433C19.6712 11.8577 19.7381 11.8935 19.7906 11.946C19.8431 11.9985 19.8788 12.0653 19.8933 12.1382C19.9078 12.211 19.9004 12.2864 19.872 12.355C19.8436 12.4236 19.7955 12.4822 19.7337 12.5235C19.672 12.5647 19.5995 12.5867 19.5252 12.5867C19.4257 12.5866 19.3303 12.547 19.26 12.4767C19.1896 12.4063 19.15 12.3109 19.1499 12.2114ZM16.9992 12.2114C16.9987 11.6711 17.1724 11.145 17.4945 10.7112L18.5099 11.7265C18.4375 11.8779 18.3999 12.0436 18.3999 12.2114C18.3999 12.3792 18.4375 12.5449 18.5099 12.6963L17.4945 13.7117C17.1724 13.2779 16.9987 12.7518 16.9992 12.2114ZM18.0249 14.2421L19.0402 13.2267C19.1916 13.2991 19.3573 13.3367 19.5252 13.3367C19.693 13.3367 19.8587 13.2991 20.0101 13.2267L21.0255 14.2421C20.5914 14.5638 20.0655 14.7374 19.5252 14.7374C18.9849 14.7374 18.459 14.5638 18.0249 14.2421ZM21.5558 13.7118L20.5406 12.6964C20.613 12.545 20.6506 12.3793 20.6506 12.2114C20.6506 12.0436 20.613 11.8779 20.5406 11.7265L21.5558 10.7109C21.8775 11.145 22.0512 11.671 22.0512 12.2113C22.0512 12.7515 21.8775 13.2775 21.5558 13.7116V13.7118Z"
                                fill="black" />
                        </g>
                        <defs>
                            <clipPath id="clip0_22_69">
                                <rect width="24" height="24" fill="white" />
                            </clipPath>
                        </defs>
                    </svg>