<svg xmlns="http://www.w3.org/2000/svg" width="40" height="40" viewBox="0 0 40 40" fill="none">
                            <path fill-rule="evenodd" clip-rule="evenodd"
                                d="M36.5666 14.25L34.8166 12.5C33.9827 11.6566 32.8525 11.1722 31.6666 11.15H25V10.1833C25 7.652 22.948 5.59998 20.4166 5.59998H6.66665C5.97629 5.59998 5.41665 6.15962 5.41665 6.84998C5.41665 7.54033 5.97629 8.09998 6.66665 8.09998H20.3666C21.5172 8.09998 22.45 9.03272 22.45 10.1833V20.7333C22.45 21.4237 23.0096 21.9833 23.7 21.9833C24.3903 21.9833 24.95 21.4237 24.95 20.7333V13.65H31.6166C32.169 13.6478 32.6985 13.8704 33.0833 14.2666L34.8333 15.9333C35.072 16.1807 35.244 16.4847 35.3333 16.8166H28.3333C27.643 16.8166 27.0833 17.3763 27.0833 18.0666C27.0833 18.757 27.643 19.3166 28.3333 19.3166H35.4166V26.4C35.4393 26.9668 35.2299 27.5184 34.8367 27.9273C34.4435 28.3362 33.9006 28.5671 33.3333 28.5666H31.4833C31.0731 26.6437 29.3745 25.2692 27.4083 25.2692C25.4421 25.2692 23.7435 26.6437 23.3333 28.5666H14.4333C13.9847 26.579 12.1545 25.2148 10.1215 25.3527C8.08856 25.4907 6.45943 27.0897 6.28349 29.1197C6.10755 31.1498 7.43731 33.0051 9.41623 33.4908C11.3952 33.9765 13.4328 32.9475 14.2166 31.0666H23.5666C24.2163 32.6136 25.7305 33.62 27.4083 33.62C29.0862 33.62 30.6003 32.6136 31.25 31.0666H33.3333C35.8646 31.0666 37.9166 29.0146 37.9166 26.4833V17.5C37.9189 16.2798 37.4328 15.1094 36.5666 14.25ZM10.3666 30.8C9.80711 30.8273 9.28757 30.5103 9.05582 30.0003C8.82407 29.4903 8.92704 28.8905 9.31562 28.487C9.70421 28.0834 10.2997 27.9579 10.8181 28.1703C11.3365 28.3826 11.6728 28.8898 11.6666 29.45C11.6671 30.1765 11.0926 30.7731 10.3666 30.8ZM26.1358 29.9524C26.3463 30.4651 26.8457 30.7999 27.4 30.8C28.1483 30.8 28.7575 30.1982 28.7666 29.45C28.7734 28.8957 28.4447 28.3923 27.9346 28.1755C27.4245 27.9587 26.834 28.0715 26.4396 28.461C26.0453 28.8505 25.9253 29.4396 26.1358 29.9524Z"
                                fill="#3AB54A" />
                            <path
                                d="M17.9166 15C17.9077 14.3134 17.3533 13.759 16.6666 13.75H3.33331C2.64296 13.75 2.08331 14.3096 2.08331 15C2.08331 15.6903 2.64296 16.25 3.33331 16.25H16.6666C17.3533 16.241 17.9077 15.6866 17.9166 15Z"
                                fill="#3AB54A" />
                            <path
                                d="M16.6666 18.75H8.33331C7.64296 18.75 7.08331 19.3096 7.08331 20C7.08331 20.6903 7.64296 21.25 8.33331 21.25H16.6666C17.357 21.25 17.9166 20.6903 17.9166 20C17.9166 19.3096 17.357 18.75 16.6666 18.75Z"
                                fill="#3AB54A" />
                        </svg>