<svg xmlns="http://www.w3.org/2000/svg" width="36" height="35" viewBox="0 0 36 35" fill="none">
                            <path
                                d="M21.6679 11.9001L12.0512 21.5167C11.5638 22.0048 11.5638 22.7954 12.0512 23.2834C12.2844 23.5195 12.6028 23.6516 12.9346 23.6501C13.2667 23.6536 13.5859 23.5211 13.8179 23.2834L23.4346 13.6667C23.769 13.3551 23.9067 12.8858 23.7935 12.4429C23.6804 12 23.3346 11.6542 22.8917 11.5411C22.4488 11.428 21.9795 11.5657 21.6679 11.9001Z"
                                fill="#3AB54A" />
                            <ellipse cx="13.418" cy="13.8334" rx="1.25" ry="1.25" fill="#3AB54A" />
                            <circle cx="22.2179" cy="21.35" r="1.25" fill="#3AB54A" />
                            <path fill-rule="evenodd" clip-rule="evenodd"
                                d="M34.7326 10.7023C35.283 12.1276 34.9221 13.744 33.8178 14.7999C33.0183 15.5145 32.5613 16.5359 32.5613 17.6082C32.5613 18.6805 33.0183 19.702 33.8178 20.4165C34.971 21.4644 35.3638 23.1121 34.8075 24.5676C34.2511 26.0231 32.8592 26.9885 31.3011 26.9999H30.8844C29.8498 27.0078 28.8631 27.4371 28.1523 28.1889C27.4414 28.9407 27.0678 29.9498 27.1178 30.9832C27.1731 32.0222 26.7961 33.0378 26.0764 33.7891C25.3566 34.5404 24.3582 34.9606 23.3178 34.9499C22.2587 34.9503 21.2507 34.4949 20.5511 33.6999C19.8337 32.9052 18.8133 32.4517 17.7428 32.4517C16.6722 32.4517 15.6518 32.9052 14.9344 33.6999C14.2348 34.4949 13.2268 34.9503 12.1678 34.9499C11.1212 34.9612 10.1172 34.5365 9.39634 33.7777C8.6755 33.0189 8.30286 31.9945 8.36776 30.9499C8.41303 29.9193 8.03735 28.9145 7.32699 28.1665C6.61664 27.4184 5.63267 26.9913 4.60109 26.9832H4.18442C2.69384 26.9125 1.38409 25.9721 0.840445 24.5824C0.296801 23.1927 0.620838 21.6133 1.66776 20.5499C2.46162 19.8356 2.91494 18.8178 2.91494 17.7499C2.91494 16.6819 2.46162 15.6642 1.66776 14.9499C0.448953 13.915 0.0123124 12.2256 0.577002 10.7298C1.14169 9.2339 2.58578 8.25452 4.18442 8.28322H4.60109C5.64645 8.2809 6.64426 7.84615 7.35776 7.08214C8.07125 6.31813 8.43684 5.29296 8.36776 4.24988C8.33131 3.22219 8.71662 2.22428 9.43426 1.48776C10.1519 0.751232 11.1395 0.340136 12.1678 0.349883C13.2309 0.347002 14.2419 0.809892 14.9344 1.61655C15.6589 2.40441 16.6808 2.85189 17.7511 2.84988C18.8156 2.84723 19.8306 2.40014 20.5511 1.61655C21.2404 0.803686 22.2519 0.334497 23.3178 0.333216C24.3612 0.32225 25.3625 0.74465 26.0828 1.4997C26.8031 2.25474 27.1778 3.27477 27.1178 4.31655C27.0677 5.34843 27.4418 6.35591 28.1532 7.10506C28.8645 7.85422 29.8513 8.27988 30.8844 8.28322H31.3011C32.8284 8.32272 34.1821 9.27703 34.7326 10.7023ZM31.9844 23.4665C32.1219 23.1763 32.0386 22.8295 31.7844 22.6332V22.5332C30.3877 21.2458 29.5931 19.4328 29.5931 17.5332C29.5931 15.6336 30.3877 13.8207 31.7844 12.5332C32.0386 12.337 32.1219 11.9901 31.9844 11.6999C31.8887 11.4053 31.6107 11.2087 31.3011 11.2165H30.8844C29.0251 11.2129 27.2483 10.448 25.9678 9.09988C24.6984 7.75208 24.0256 5.94977 24.1011 4.09988C24.1291 3.90096 24.0681 3.69981 23.9344 3.54988C23.7731 3.38169 23.5508 3.28557 23.3178 3.28322C23.0802 3.26121 22.8478 3.36171 22.7011 3.54988C21.4211 4.96218 19.6071 5.77242 17.7011 5.78322C15.7955 5.77038 13.9823 4.96048 12.7011 3.54988C12.572 3.38593 12.3764 3.28816 12.1678 3.28322C11.9347 3.28557 11.7124 3.38169 11.5511 3.54988C11.4174 3.69981 11.3564 3.90096 11.3844 4.09988C11.4945 5.96871 10.8293 7.80027 9.5456 9.16286C8.26186 10.5255 6.47316 11.2985 4.60109 11.2999H4.23442C3.90833 11.2748 3.60661 11.4736 3.50109 11.7832C3.36364 12.0735 3.44688 12.4203 3.70109 12.6165C5.11 13.899 5.91955 15.7114 5.93442 17.6165C5.92363 19.5226 5.11338 21.3365 3.70109 22.6165C3.44688 22.8128 3.36364 23.1596 3.50109 23.4499C3.58573 23.7546 3.86839 23.9614 4.18442 23.9499H4.60109C6.45942 23.957 8.2343 24.7224 9.51489 26.0691C10.7955 27.4158 11.4708 29.2269 11.3844 31.0832C11.3543 31.2772 11.4159 31.4742 11.5511 31.6165C11.7312 31.7961 11.981 31.8875 12.2344 31.8665C12.4393 31.8614 12.6327 31.7708 12.7678 31.6165C14.0514 30.1826 15.8849 29.3631 17.8094 29.3631C19.734 29.3631 21.5675 30.1826 22.8511 31.6165C22.9673 31.7613 23.1341 31.8566 23.3178 31.8832C23.5508 31.8809 23.7731 31.7847 23.9344 31.6165C24.0696 31.4742 24.1312 31.2772 24.1011 31.0832C24.0331 29.2345 24.7049 27.435 25.9678 26.0832C27.2528 24.7416 29.0267 23.978 30.8844 23.9665H31.2511C31.5835 23.996 31.8904 23.7867 31.9844 23.4665Z"
                                fill="#3AB54A" />
                        </svg>