 <svg xmlns="http://www.w3.org/2000/svg" width="40" height="40" viewBox="0 0 40 40" fill="none">
                            <path fill-rule="evenodd" clip-rule="evenodd"
                                d="M32.95 8.64999L23.1167 3.19999C21.1845 2.10008 18.8156 2.10008 16.8833 3.19999L7.05001 8.64999C5.00048 9.77705 3.72414 11.9277 3.71667 14.2667V24.85C3.72256 25.8433 3.95033 26.8227 4.38334 27.7167V27.8C3.43387 29.8323 3.85309 32.2412 5.43334 33.8333L9.15001 37.3667C9.95943 38.1486 11.0413 38.5849 12.1667 38.5833C13.283 38.5799 14.356 38.1507 15.1667 37.3833L16.7167 35.9C18.6515 36.99 21.0152 36.99 22.95 35.9L32.7833 30.45C34.8329 29.3229 36.1092 27.1723 36.1167 24.8333V14.2667C36.1432 11.9624 34.9353 9.81995 32.95 8.64999ZM15.15 34.1667L13.6167 35.6333C12.8601 36.3679 11.6566 36.3679 10.9 35.6333L7.23334 32.1333C6.4152 31.2869 6.17859 30.0351 6.63135 28.9485C7.08412 27.8618 8.13958 27.1484 9.31667 27.1333C10.0974 27.1401 10.8448 27.451 11.4 28L12.2667 28.8667L13.1167 28C13.6719 27.451 14.4192 27.1401 15.2 27.1333C16.3771 27.1484 17.4326 27.8618 17.8853 28.9485C18.3381 30.0351 18.1015 31.2869 17.2833 32.1333L15.15 34.1667ZM31.6667 28.3333C32.9528 27.6479 33.7545 26.3074 33.75 24.85L33.6833 14.2667C33.6828 12.8414 32.9113 11.5279 31.6667 10.8333L21.9667 5.38332C20.7874 4.71798 19.346 4.71798 18.1667 5.38332L8.33334 10.8333C7.07584 11.5191 6.29056 12.8343 6.28334 14.2667V24.8333C6.25883 25.0827 6.25883 25.3339 6.28334 25.5833C8.08263 24.395 10.4174 24.395 12.2167 25.5833C14.5277 23.9948 17.6731 24.4602 19.4249 26.65C21.1768 28.8398 20.9404 32.0107 18.8833 33.9167L18.7333 34.0667C19.761 34.4086 20.8847 34.3059 21.8333 33.7833L31.6667 28.3333Z"
                                fill="#3AB54A" />
                            <path
                                d="M28.1667 12.7333L20.8167 16.8167C20.301 17.1144 19.6657 17.1144 19.15 16.8167L11.8333 12.7333C11.4284 12.516 10.9383 12.5312 10.5477 12.7732C10.157 13.0151 9.92511 13.4472 9.93935 13.9065C9.95358 14.3658 10.2118 14.7827 10.6167 15L17.9667 19.1C18.2178 19.2243 18.4801 19.3248 18.75 19.4V23.2667C18.75 23.957 19.3097 24.5167 20 24.5167C20.6904 24.5167 21.25 23.957 21.25 23.2667V19.3167C21.5229 19.243 21.7859 19.1366 22.0333 19L29.3833 15C29.7835 14.7879 30.0376 14.376 30.0477 13.9233C30.0578 13.4705 29.8222 13.0477 29.4319 12.8181C29.0415 12.5885 28.5575 12.5879 28.1667 12.8167V12.7333Z"
                                fill="#3AB54A" />
                        </svg>