<svg xmlns="http://www.w3.org/2000/svg" width="24" height="24" viewBox="0 0 24 24" fill="none">
                        <g clip-path="url(#clip0_22_87)">
                            <path
                                d="M6.52772 22.9938L7.00041 23.8125C7.03332 23.8695 7.08066 23.9168 7.13766 23.9498C7.19467 23.9827 7.25933 24 7.32516 24H8.7361C8.80192 24 8.86659 23.9827 8.92359 23.9498C8.9806 23.9168 9.02793 23.8695 9.06085 23.8125L9.53353 22.9938H14.4666L14.9393 23.8125C14.9722 23.8695 15.0196 23.9168 15.0766 23.9498C15.1336 23.9827 15.1982 24 15.264 24H16.675C16.7408 24 16.8055 23.9827 16.8625 23.9498C16.9195 23.9168 16.9668 23.8695 16.9997 23.8125L17.4725 22.9938H17.7803C18.1755 22.9933 18.5544 22.836 18.8338 22.5565C19.1133 22.277 19.2704 21.8981 19.2709 21.5029V1.49091C19.2704 1.09565 19.1132 0.716707 18.8338 0.437206C18.5543 0.157705 18.1754 0.000471471 17.7801 0L6.21994 0C5.82466 0.00044664 5.44571 0.157667 5.1662 0.43717C4.8867 0.716672 4.72948 1.09563 4.72903 1.49091V21.5029C4.72948 21.8982 4.8867 22.2771 5.1662 22.5566C5.44571 22.8361 5.82466 22.9933 6.21994 22.9938H6.52772ZM8.51944 23.25H7.54168L7.39369 22.9938H8.66719L8.51944 23.25ZM16.4583 23.25H15.4806L15.3326 22.9938H16.6063L16.4583 23.25ZM5.47903 6.99595H18.521V7.85897H5.47903V6.99595ZM6.21994 0.75H17.7801C17.9765 0.750298 18.1647 0.828462 18.3036 0.967352C18.4424 1.10624 18.5205 1.29452 18.5207 1.49091V6.24595H5.47903V1.49091C5.47926 1.29447 5.55739 1.10615 5.69629 0.967253C5.83519 0.828355 6.02351 0.750223 6.21994 0.75ZM5.47903 21.5029V8.60897H18.521V21.5029C18.5208 21.6993 18.4427 21.8875 18.3038 22.0264C18.165 22.1653 17.9767 22.2435 17.7803 22.2438H6.21994C6.02351 22.2436 5.83519 22.1654 5.69629 22.0265C5.55739 21.8876 5.47926 21.6993 5.47903 21.5029ZM5.98702 4.26094V2.73497C5.98701 2.66914 6.00434 2.60446 6.03725 2.54745C6.07016 2.49043 6.11751 2.44309 6.17452 2.41017L6.83546 2.02866C6.87811 2.00403 6.92519 1.98805 6.97401 1.98162C7.02284 1.9752 7.07245 1.97845 7.12002 1.9912C7.16759 2.00394 7.21218 2.02594 7.25125 2.05592C7.29032 2.0859 7.32311 2.12328 7.34773 2.16593C7.37235 2.20858 7.38833 2.25566 7.39476 2.30449C7.40119 2.35331 7.39794 2.40293 7.38519 2.4505C7.37244 2.49807 7.35045 2.54266 7.32047 2.58173C7.29049 2.6208 7.25311 2.65358 7.21046 2.6782L6.73702 2.95144V4.04447L7.21046 4.31775C7.25345 4.34219 7.29118 4.3749 7.32148 4.41398C7.35178 4.45307 7.37405 4.49776 7.38701 4.54549C7.39997 4.59322 7.40336 4.64304 7.39698 4.69208C7.39061 4.74112 7.3746 4.78842 7.34987 4.83125C7.32514 4.87408 7.29218 4.91159 7.2529 4.94163C7.21361 4.97167 7.16877 4.99365 7.12096 5.00629C7.07315 5.01893 7.02331 5.02199 6.97431 5.01529C6.92531 5.00859 6.87812 4.99226 6.83546 4.96725L6.17452 4.58578C6.1175 4.55286 6.07015 4.50551 6.03724 4.44849C6.00432 4.39146 5.987 4.32678 5.98702 4.26094ZM6.83546 12.6332L6.17452 12.2517C6.11751 12.2188 6.07016 12.1715 6.03725 12.1144C6.00434 12.0574 5.98701 11.9928 5.98702 11.9269V10.4009C5.98702 10.3351 6.00435 10.2704 6.03726 10.2134C6.07017 10.1564 6.11751 10.1091 6.17452 10.0762L6.83546 9.69464C6.87811 9.67002 6.92519 9.65404 6.97401 9.64761C7.02284 9.64118 7.07245 9.64443 7.12002 9.65718C7.16759 9.66993 7.21218 9.69192 7.25125 9.7219C7.29032 9.75188 7.32311 9.78926 7.34773 9.83191C7.37235 9.87456 7.38833 9.92165 7.39476 9.97047C7.40119 10.0193 7.39794 10.0689 7.38519 10.1165C7.37244 10.1641 7.35045 10.2086 7.32047 10.2477C7.29049 10.2868 7.25311 10.3196 7.21046 10.3442L6.73702 10.6174V11.7105L7.21046 11.9837C7.25345 12.0082 7.29118 12.0409 7.32148 12.08C7.35178 12.1191 7.37405 12.1637 7.38701 12.2115C7.39997 12.2592 7.40336 12.309 7.39698 12.3581C7.39061 12.4071 7.3746 12.4544 7.34987 12.4972C7.32514 12.5401 7.29218 12.5776 7.2529 12.6076C7.21361 12.6377 7.16877 12.6596 7.12096 12.6723C7.07315 12.6849 7.02331 12.688 6.97431 12.6813C6.92531 12.6746 6.87812 12.6582 6.83546 12.6332V12.6332Z"
                                fill="black" />
                        </g>
                        <defs>
                            <clipPath id="clip0_22_87">
                                <rect width="24" height="24" fill="white" />
                            </clipPath>
                        </defs>
                    </svg>