<svg xmlns="http://www.w3.org/2000/svg" width="24" height="24" viewBox="0 0 24 24" fill="none">
<path
d="M20.8266 0H3.17343C2.42343 0 1.80937 0.614063 1.80937 1.36406V13.3547C1.80937 14.1047 2.42343 14.7188 3.17343 14.7188H10.2141C9.83906 15.4031 9.38906 15.9516 8.90156 16.3125C8.32031 16.3781 7.86562 16.8703 7.86562 17.4703V18.2625C7.86562 18.4688 8.03437 18.6375 8.24062 18.6375H15.7594C15.9656 18.6375 16.1344 18.4688 16.1344 18.2625V17.4703C16.1344 16.8656 15.675 16.3687 15.0844 16.3078C15.0703 16.2891 15.0516 16.275 15.0328 16.2609C14.5734 15.9 14.1469 15.375 13.7859 14.7188H20.8266C21.5766 14.7188 22.1906 14.1047 22.1906 13.3547V1.36406C22.1906 0.614063 21.5766 0 20.8266 0ZM3.17343 0.75H20.8266C21.1641 0.75 21.4406 1.02656 21.4406 1.36406V11.4844H20.8031V1.7625C20.8031 1.55625 20.6344 1.3875 20.4281 1.3875H3.57187C3.36562 1.3875 3.19687 1.55625 3.19687 1.7625V11.4844H2.55937V1.36406C2.55937 1.02656 2.83593 0.75 3.17343 0.75ZM20.0531 11.4844H3.94687V2.1375H20.0578V11.4844H20.0531ZM15.3844 17.4703V17.8875H8.61562V17.4703C8.61562 17.2406 8.80312 17.0531 9.03281 17.0531H14.9672C15.1969 17.0578 15.3844 17.2406 15.3844 17.4703ZM13.9875 16.3078H10.0125C10.4062 15.8766 10.7578 15.3375 11.0578 14.7234H12.9469C13.2422 15.3375 13.5937 15.8719 13.9875 16.3078ZM20.8266 13.9688H3.17343C2.83593 13.9688 2.55937 13.6922 2.55937 13.3547V12.2344H21.4406V13.3547C21.4406 13.6969 21.1641 13.9688 20.8266 13.9688ZM12.375 13.1016C12.375 13.3078 12.2062 13.4766 12 13.4766C11.7937 13.4766 11.625 13.3078 11.625 13.1016C11.625 12.8953 11.7937 12.7266 12 12.7266C12.2062 12.7266 12.375 12.8953 12.375 13.1016ZM18.6375 19.6594C18.5719 19.2844 18.2062 19.0266 17.7516 19.0266H6.24843C5.78906 19.0266 5.42812 19.2891 5.3625 19.6594L4.73437 23.2359C4.70625 23.3953 4.75312 23.5594 4.86093 23.6906C5.02031 23.8781 5.31093 23.9953 5.62031 23.9953H18.3797C18.6891 23.9953 18.9797 23.8781 19.1391 23.6906C19.2516 23.5594 19.2937 23.3953 19.2656 23.2359L18.6375 19.6594ZM18.3797 23.25H5.62031C5.56875 23.25 5.52656 23.2406 5.49375 23.2313L6.09375 19.8141C6.1125 19.8 6.16406 19.7766 6.24843 19.7766H17.7516C17.8359 19.7766 17.8875 19.8 17.9062 19.8141L18.5062 23.2313C18.4734 23.2406 18.4312 23.25 18.3797 23.25ZM6.13125 20.4047C6.13125 20.1984 6.3 20.0297 6.50625 20.0297H6.68437C6.89062 20.0297 7.05937 20.1984 7.05937 20.4047C7.05937 20.6109 6.89062 20.7797 6.68437 20.7797H6.50625C6.29531 20.7797 6.13125 20.6109 6.13125 20.4047ZM7.21875 20.4047C7.21875 20.1984 7.3875 20.0297 7.59375 20.0297H7.77187C7.97812 20.0297 8.14687 20.1984 8.14687 20.4047C8.14687 20.6109 7.97812 20.7797 7.77187 20.7797H7.59375C7.38281 20.7797 7.21875 20.6109 7.21875 20.4047ZM8.30625 20.4047C8.30625 20.1984 8.475 20.0297 8.68125 20.0297H8.85937C9.06562 20.0297 9.23437 20.1984 9.23437 20.4047C9.23437 20.6109 9.06562 20.7797 8.85937 20.7797H8.68125C8.47031 20.7797 8.30625 20.6109 8.30625 20.4047ZM9.39375 20.4047C9.39375 20.1984 9.5625 20.0297 9.76875 20.0297H9.94687C10.1531 20.0297 10.3219 20.1984 10.3219 20.4047C10.3219 20.6109 10.1531 20.7797 9.94687 20.7797H9.76875C9.5625 20.7797 9.39375 20.6109 9.39375 20.4047ZM10.4812 20.4047C10.4812 20.1984 10.65 20.0297 10.8562 20.0297H11.0344C11.2406 20.0297 11.4094 20.1984 11.4094 20.4047C11.4094 20.6109 11.2406 20.7797 11.0344 20.7797H10.8562C10.65 20.7797 10.4812 20.6109 10.4812 20.4047ZM11.5687 20.4047C11.5687 20.1984 11.7375 20.0297 11.9437 20.0297H12.1219C12.3281 20.0297 12.4969 20.1984 12.4969 20.4047C12.4969 20.6109 12.3281 20.7797 12.1219 20.7797H11.9437C11.7375 20.7797 11.5687 20.6109 11.5687 20.4047ZM12.6562 20.4047C12.6562 20.1984 12.825 20.0297 13.0312 20.0297H13.2094C13.4156 20.0297 13.5844 20.1984 13.5844 20.4047C13.5844 20.6109 13.4156 20.7797 13.2094 20.7797H13.0312C12.825 20.7797 12.6562 20.6109 12.6562 20.4047ZM13.7437 20.4047C13.7437 20.1984 13.9125 20.0297 14.1187 20.0297H14.2969C14.5031 20.0297 14.6719 20.1984 14.6719 20.4047C14.6719 20.6109 14.5031 20.7797 14.2969 20.7797H14.1187C13.9125 20.7797 13.7437 20.6109 13.7437 20.4047ZM14.8312 20.4047C14.8312 20.1984 15 20.0297 15.2062 20.0297H15.3844C15.5906 20.0297 15.7594 20.1984 15.7594 20.4047C15.7594 20.6109 15.5906 20.7797 15.3844 20.7797H15.2062C15 20.7797 14.8312 20.6109 14.8312 20.4047ZM15.9187 20.4047C15.9187 20.1984 16.0875 20.0297 16.2937 20.0297H16.4719C16.6781 20.0297 16.8469 20.1984 16.8469 20.4047C16.8469 20.6109 16.6781 20.7797 16.4719 20.7797H16.2937C16.0875 20.7797 15.9187 20.6109 15.9187 20.4047ZM17.9344 20.4047C17.9344 20.6109 17.7656 20.7797 17.5594 20.7797H17.3812C17.175 20.7797 17.0062 20.6109 17.0062 20.4047C17.0062 20.1984 17.175 20.0297 17.3812 20.0297H17.5594C17.7656 20.0297 17.9344 20.1984 17.9344 20.4047ZM6.13125 21.5203C6.13125 21.3141 6.3 21.1453 6.50625 21.1453H6.68437C6.89062 21.1453 7.05937 21.3141 7.05937 21.5203C7.05937 21.7266 6.89062 21.8953 6.68437 21.8953H6.50625C6.29531 21.8953 6.13125 21.7266 6.13125 21.5203ZM7.77187 21.8953H7.59375C7.3875 21.8953 7.21875 21.7266 7.21875 21.5203C7.21875 21.3141 7.3875 21.1453 7.59375 21.1453H7.77187C7.97812 21.1453 8.14687 21.3141 8.14687 21.5203C8.14687 21.7266 7.97812 21.8953 7.77187 21.8953ZM8.30625 21.5203C8.30625 21.3141 8.475 21.1453 8.68125 21.1453H8.85937C9.06562 21.1453 9.23437 21.3141 9.23437 21.5203C9.23437 21.7266 9.06562 21.8953 8.85937 21.8953H8.68125C8.47031 21.8953 8.30625 21.7266 8.30625 21.5203ZM9.39375 21.5203C9.39375 21.3141 9.5625 21.1453 9.76875 21.1453H9.94687C10.1531 21.1453 10.3219 21.3141 10.3219 21.5203C10.3219 21.7266 10.1531 21.8953 9.94687 21.8953H9.76875C9.5625 21.8953 9.39375 21.7266 9.39375 21.5203ZM10.4812 21.5203C10.4812 21.3141 10.65 21.1453 10.8562 21.1453H11.0344C11.2406 21.1453 11.4094 21.3141 11.4094 21.5203C11.4094 21.7266 11.2406 21.8953 11.0344 21.8953H10.8562C10.65 21.8953 10.4812 21.7266 10.4812 21.5203ZM11.5687 21.5203C11.5687 21.3141 11.7375 21.1453 11.9437 21.1453H12.1219C12.3281 21.1453 12.4969 21.3141 12.4969 21.5203C12.4969 21.7266 12.3281 21.8953 12.1219 21.8953H11.9437C11.7375 21.8953 11.5687 21.7266 11.5687 21.5203ZM12.6562 21.5203C12.6562 21.3141 12.825 21.1453 13.0312 21.1453H13.2094C13.4156 21.1453 13.5844 21.3141 13.5844 21.5203C13.5844 21.7266 13.4156 21.8953 13.2094 21.8953H13.0312C12.825 21.8953 12.6562 21.7266 12.6562 21.5203ZM13.7437 21.5203C13.7437 21.3141 13.9125 21.1453 14.1187 21.1453H14.2969C14.5031 21.1453 14.6719 21.3141 14.6719 21.5203C14.6719 21.7266 14.5031 21.8953 14.2969 21.8953H14.1187C13.9125 21.8953 13.7437 21.7266 13.7437 21.5203ZM14.8312 21.5203C14.8312 21.3141 15 21.1453 15.2062 21.1453H15.3844C15.5906 21.1453 15.7594 21.3141 15.7594 21.5203C15.7594 21.7266 15.5906 21.8953 15.3844 21.8953H15.2062C15 21.8953 14.8312 21.7266 14.8312 21.5203ZM16.4719 21.8953H16.2937C16.0875 21.8953 15.9187 21.7266 15.9187 21.5203C15.9187 21.3141 16.0875 21.1453 16.2937 21.1453H16.4719C16.6781 21.1453 16.8469 21.3141 16.8469 21.5203C16.8469 21.7266 16.6781 21.8953 16.4719 21.8953ZM17.9344 21.5203C17.9344 21.7266 17.7656 21.8953 17.5594 21.8953H17.3812C17.175 21.8953 17.0062 21.7266 17.0062 21.5203C17.0062 21.3141 17.175 21.1453 17.3812 21.1453H17.5594C17.7656 21.1453 17.9344 21.3141 17.9344 21.5203ZM16.1484 22.7438C16.1484 22.95 15.9797 23.1188 15.7734 23.1188H8.4C8.19375 23.1188 8.025 22.95 8.025 22.7438C8.025 22.5375 8.19375 22.3688 8.4 22.3688H15.7687C15.9797 22.3688 16.1484 22.5328 16.1484 22.7438ZM7.54687 22.7062C7.54687 22.9125 7.37812 23.0812 7.17187 23.0812H6.50625C6.3 23.0812 6.13125 22.9125 6.13125 22.7062C6.13125 22.5 6.3 22.3312 6.50625 22.3312H7.17187C7.37812 22.3312 7.54687 22.5 7.54687 22.7062ZM17.9344 22.7062C17.9344 22.9125 17.7656 23.0812 17.5594 23.0812H16.8937C16.6875 23.0812 16.5187 22.9125 16.5187 22.7062C16.5187 22.5 16.6875 22.3312 16.8937 22.3312H17.5594C17.7656 22.3312 17.9344 22.5 17.9344 22.7062Z"
fill="black" />
</svg>