<svg xmlns="http://www.w3.org/2000/svg" width="24" height="24" viewBox="0 0 24 24" fill="none">
                        <path
                            d="M9.50484 17.3217C8.8064 18.7495 7.92947 19.8771 6.96169 20.5868C6.95007 20.5953 6.93895 20.6046 6.9284 20.6145C6.50107 20.6454 6.10127 20.8369 5.80927 21.1504C5.51726 21.464 5.35468 21.8764 5.35415 22.3048V23.625C5.35415 23.7245 5.39366 23.8198 5.46399 23.8902C5.53431 23.9605 5.6297 24 5.72915 24H18.2708C18.3702 24 18.4656 23.9605 18.536 23.8902C18.6063 23.8198 18.6458 23.7245 18.6458 23.625V22.3048C18.6453 21.8655 18.4745 21.4436 18.1692 21.1276C17.864 20.8117 17.4481 20.6265 17.0091 20.6109C16.9843 20.5627 16.9493 20.5204 16.9065 20.487C15.9919 19.775 15.1608 18.6823 14.4951 17.3215C18.1585 16.2422 20.8406 12.8488 20.8406 8.84063C20.8406 3.96563 16.8746 0 12 0C7.12537 0 3.15961 3.96563 3.15961 8.84063C3.15961 12.8488 5.84142 16.2422 9.50484 17.3217ZM17.8958 22.3048V23.25H6.10415V22.3048C6.10444 22.0542 6.20411 21.814 6.38129 21.6368C6.55848 21.4596 6.79871 21.36 7.04929 21.3597H16.9507C17.2012 21.36 17.4415 21.4596 17.6187 21.6368C17.7958 21.814 17.8955 22.0542 17.8958 22.3048ZM15.9053 20.6097H8.09531C8.91534 19.8242 9.65034 18.7681 10.2487 17.5078C10.2487 17.5073 10.2491 17.5069 10.2494 17.5064C11.405 17.7389 12.5953 17.7389 13.7509 17.5064C14.3487 18.7654 15.0853 19.8241 15.9053 20.6097ZM14.5145 1.15055V3.60562C14.5143 3.75786 14.4537 3.90382 14.3461 4.01147C14.2384 4.11912 14.0925 4.17967 13.9402 4.17984H10.0597C9.90746 4.17967 9.76151 4.11912 9.65386 4.01147C9.54621 3.90382 9.48565 3.75786 9.48548 3.60562V1.15055C11.1193 0.616485 12.8807 0.616485 14.5145 1.15055ZM8.73548 1.43864V3.60562C8.73588 3.95671 8.87552 4.2933 9.12378 4.54155C9.37203 4.7898 9.70862 4.92945 10.0597 4.92984H13.9402C14.2913 4.92945 14.6279 4.7898 14.8762 4.54155C15.1244 4.2933 15.2641 3.95671 15.2645 3.60562V1.43864C18.1041 2.69592 20.0906 5.54034 20.0906 8.84063C20.0906 13.3017 16.4613 16.9313 12 16.9313C7.53872 16.9313 3.90961 13.3015 3.90961 8.84063C3.90961 5.54034 5.89589 2.69592 8.73548 1.43864ZM11.625 2.46492C11.6249 2.41574 11.6344 2.36701 11.6532 2.32153C11.6719 2.27604 11.6994 2.2347 11.7341 2.19987C11.7688 2.16504 11.8101 2.13739 11.8555 2.11853C11.9009 2.09966 11.9496 2.08994 11.9988 2.08992H12.0011C12.0752 2.09014 12.1476 2.11233 12.2092 2.15367C12.2707 2.19501 12.3186 2.25365 12.3468 2.32219C12.375 2.39073 12.3823 2.4661 12.3677 2.53877C12.3531 2.61144 12.3173 2.67815 12.2648 2.73048C12.2123 2.78281 12.1455 2.81842 12.0727 2.8328C12 2.84717 11.9247 2.83968 11.8562 2.81127C11.7878 2.78285 11.7293 2.73479 11.6881 2.67314C11.647 2.6115 11.625 2.53904 11.625 2.46492ZM12 15.2623C12.8625 15.2623 13.7056 15.0065 14.4228 14.5273C15.14 14.0481 15.6989 13.367 16.029 12.5702C16.359 11.7733 16.4454 10.8965 16.2771 10.0506C16.1089 9.20462 15.6935 8.42757 15.0836 7.81769C14.4737 7.20781 13.6967 6.79247 12.8507 6.62421C12.0048 6.45595 11.128 6.54232 10.3311 6.87239C9.53426 7.20247 8.85318 7.76142 8.374 8.47858C7.89482 9.19573 7.63907 10.0389 7.63908 10.9014C7.64032 12.0576 8.10016 13.1661 8.91772 13.9837C9.73528 14.8013 10.8438 15.2612 12 15.2625V15.2623ZM12 7.29047C12.7142 7.29047 13.4123 7.50225 14.0061 7.89902C14.5999 8.29579 15.0628 8.85974 15.3361 9.51955C15.6094 10.1794 15.6809 10.9054 15.5415 11.6058C15.4022 12.3063 15.0583 12.9497 14.5533 13.4547C14.0483 13.9597 13.4049 14.3036 12.7045 14.4429C12.004 14.5823 11.278 14.5107 10.6182 14.2374C9.95835 13.9641 9.3944 13.5013 8.99763 12.9075C8.60085 12.3137 8.38908 11.6156 8.38908 10.9014C8.39015 9.94405 8.77094 9.02622 9.44788 8.34928C10.1248 7.67233 11.0427 7.29155 12 7.29047ZM12 13.0944C12.4338 13.0944 12.8578 12.9658 13.2184 12.7248C13.5791 12.4838 13.8602 12.1413 14.0262 11.7406C14.1921 11.3399 14.2356 10.8989 14.1509 10.4735C14.0663 10.0481 13.8574 9.65728 13.5507 9.35058C13.244 9.04387 12.8532 8.835 12.4278 8.75038C12.0024 8.66577 11.5614 8.70921 11.1607 8.8752C10.76 9.0412 10.4175 9.3223 10.1765 9.68296C9.93551 10.0436 9.80689 10.4676 9.8069 10.9014C9.80757 11.4828 10.0388 12.0403 10.45 12.4514C10.8611 12.8625 11.4186 13.0938 12 13.0944ZM12 9.4583C12.2854 9.4583 12.5644 9.54293 12.8017 9.7015C13.0391 9.86007 13.224 10.0855 13.3332 10.3491C13.4425 10.6128 13.471 10.903 13.4154 11.1829C13.3597 11.4629 13.2222 11.72 13.0204 11.9218C12.8186 12.1236 12.5615 12.2611 12.2815 12.3168C12.0016 12.3724 11.7114 12.3439 11.4477 12.2346C11.1841 12.1254 10.9587 11.9404 10.8001 11.7031C10.6415 11.4658 10.5569 11.1868 10.5569 10.9014C10.5573 10.5188 10.7095 10.152 10.9801 9.88145C11.2506 9.61091 11.6174 9.45873 12 9.4583Z"
                            fill="black" />
                    </svg>