<svg xmlns="http://www.w3.org/2000/svg" width="24" height="24" viewBox="0 0 24 24" fill="none">
                        <g clip-path="url(#clip0_22_80)">
                            <path
                                d="M19.9681 2.47453C19.7334 2.47454 19.5039 2.54415 19.3088 2.67454C19.1137 2.80494 18.9616 2.99028 18.8718 3.20711C18.782 3.42394 18.7585 3.66254 18.8043 3.89272C18.8501 4.12289 18.9632 4.33432 19.1291 4.50026C19.2951 4.66619 19.5065 4.77918 19.7367 4.82494C19.9669 4.87071 20.2055 4.84718 20.4223 4.75734C20.6391 4.6675 20.8244 4.51538 20.9548 4.32022C21.0852 4.12506 21.1547 3.89563 21.1547 3.66094C21.1543 3.34637 21.0291 3.0448 20.8067 2.82239C20.5842 2.59998 20.2826 2.47488 19.9681 2.47453ZM19.9681 4.09772C19.8817 4.09771 19.7973 4.0721 19.7255 4.02413C19.6537 3.97616 19.5978 3.90798 19.5647 3.82821C19.5317 3.74845 19.523 3.66067 19.5399 3.57599C19.5567 3.49131 19.5983 3.41352 19.6593 3.35246C19.7204 3.29139 19.7981 3.2498 19.8828 3.23294C19.9675 3.21608 20.0553 3.2247 20.1351 3.25772C20.2148 3.29073 20.283 3.34666 20.331 3.41844C20.379 3.49021 20.4047 3.5746 20.4047 3.66094C20.4046 3.77673 20.3586 3.88776 20.2767 3.96966C20.1949 4.05155 20.0838 4.09761 19.9681 4.09772ZM5.20664 2.29303H3.22032C3.12086 2.29303 3.02548 2.33254 2.95515 2.40287C2.88483 2.47319 2.84532 2.56858 2.84532 2.66803V4.65422C2.84532 4.75367 2.88483 4.84906 2.95515 4.91938C3.02548 4.98971 3.12086 5.02922 3.22032 5.02922H5.20655C5.30601 5.02922 5.40139 4.98971 5.47172 4.91938C5.54204 4.84906 5.58155 4.75367 5.58155 4.65422V2.66798C5.58155 2.56854 5.54206 2.47318 5.47175 2.40285C5.40144 2.33253 5.30608 2.29306 5.20664 2.29303ZM4.83164 4.27927H3.59532V3.04298H4.83155L4.83164 4.27927ZM8.73061 2.29303H6.74438C6.64492 2.29303 6.54954 2.33254 6.47921 2.40287C6.40889 2.47319 6.36938 2.56858 6.36938 2.66803V4.65422C6.36938 4.75367 6.40889 4.84906 6.47921 4.91938C6.54954 4.98971 6.64492 5.02922 6.74438 5.02922H8.73061C8.83007 5.02922 8.92545 4.98971 8.99578 4.91938C9.0661 4.84906 9.10561 4.75367 9.10561 4.65422V2.66798C9.10561 2.56853 9.0661 2.47315 8.99578 2.40282C8.92545 2.33249 8.83007 2.29303 8.73061 2.29303ZM8.35561 4.27927H7.11938V3.04298H8.35561V4.27927ZM12.2546 2.29303H10.2684C10.1689 2.29303 10.0736 2.33254 10.0032 2.40287C9.9329 2.47319 9.8934 2.56858 9.8934 2.66803V4.65422C9.8934 4.75367 9.9329 4.84906 10.0032 4.91938C10.0736 4.98971 10.1689 5.02922 10.2684 5.02922H12.2546C12.3541 5.02922 12.4495 4.98971 12.5198 4.91938C12.5901 4.84906 12.6296 4.75367 12.6296 4.65422V2.66798C12.6296 2.56853 12.5901 2.47315 12.5198 2.40282C12.4495 2.33249 12.3541 2.29303 12.2546 2.29303ZM11.8796 4.27927H10.6434V3.04298H11.8796V4.27927ZM18.1853 3.66094C18.1854 3.73517 18.1635 3.80778 18.1224 3.86958C18.0813 3.93137 18.0227 3.9796 17.9542 4.00816C17.8857 4.03672 17.8102 4.04433 17.7374 4.03003C17.6646 4.01573 17.5976 3.98016 17.5449 3.92782C17.4923 3.87548 17.4563 3.80871 17.4416 3.73595C17.4269 3.66319 17.4341 3.58769 17.4623 3.51901C17.4904 3.45032 17.5383 3.39153 17.5999 3.35004C17.6614 3.30856 17.7339 3.28625 17.8081 3.28594H17.8103C17.9098 3.28594 18.0051 3.32545 18.0755 3.39577C18.1458 3.4661 18.1853 3.56148 18.1853 3.66094ZM17.1601 3.66094C17.1602 3.73516 17.1383 3.80775 17.0972 3.86954C17.0561 3.93132 16.9976 3.97953 16.9291 4.00808C16.8605 4.03663 16.7851 4.04423 16.7123 4.02993C16.6394 4.01563 16.5725 3.98006 16.5198 3.92772C16.4672 3.87539 16.4313 3.80863 16.4166 3.73587C16.4019 3.66312 16.409 3.58764 16.4372 3.51897C16.4654 3.4503 16.5132 3.39151 16.5748 3.35003C16.6363 3.30856 16.7088 3.28625 16.783 3.28594H16.7851C16.8846 3.28594 16.98 3.32545 17.0503 3.39577C17.1206 3.4661 17.1601 3.56148 17.1601 3.66094ZM16.135 3.66094C16.1351 3.73516 16.1132 3.80775 16.0721 3.86954C16.0309 3.93132 15.9724 3.97953 15.9039 4.00808C15.8354 4.03663 15.7599 4.04423 15.6871 4.02993C15.6143 4.01563 15.5473 3.98006 15.4947 3.92772C15.4421 3.87539 15.4061 3.80863 15.3914 3.73587C15.3767 3.66312 15.3839 3.58764 15.412 3.51897C15.4402 3.4503 15.4881 3.39151 15.5496 3.35003C15.6112 3.30856 15.6837 3.28625 15.7579 3.28594H15.76C15.8594 3.28594 15.9548 3.32545 16.0252 3.39577C16.0955 3.4661 16.135 3.56148 16.135 3.66094ZM19.9681 10.8132C19.7334 10.8132 19.504 10.8828 19.3088 11.0132C19.1137 11.1436 18.9616 11.3289 18.8718 11.5457C18.782 11.7625 18.7585 12.0011 18.8043 12.2313C18.8501 12.4614 18.9631 12.6729 19.129 12.8388C19.2949 13.0048 19.5063 13.1178 19.7365 13.1636C19.9667 13.2094 20.2052 13.1859 20.4221 13.0961C20.6389 13.0063 20.8242 12.8543 20.9546 12.6592C21.085 12.4641 21.1547 12.2347 21.1547 12C21.1543 11.6854 21.0292 11.3838 20.8067 11.1613C20.5843 10.9389 20.2827 10.8138 19.9681 10.8134V10.8132ZM19.9681 12.4364C19.8817 12.4364 19.7973 12.4108 19.7255 12.3628C19.6537 12.3148 19.5977 12.2466 19.5647 12.1668C19.5317 12.087 19.523 11.9992 19.5399 11.9145C19.5568 11.8298 19.5984 11.7521 19.6595 11.691C19.7205 11.63 19.7984 11.5884 19.8831 11.5716C19.9678 11.5548 20.0555 11.5634 20.1353 11.5965C20.2151 11.6296 20.2833 11.6856 20.3312 11.7574C20.3792 11.8292 20.4047 11.9136 20.4047 12C20.4046 12.1158 20.3585 12.2267 20.2767 12.3086C20.1948 12.3905 20.0838 12.4365 19.9681 12.4366V12.4364ZM5.20664 10.6317H3.22032C3.12086 10.6317 3.02548 10.6712 2.95515 10.7416C2.88483 10.8119 2.84532 10.9073 2.84532 11.0067V12.993C2.84532 13.0924 2.88483 13.1878 2.95515 13.2581C3.02548 13.3284 3.12086 13.368 3.22032 13.368H5.20655C5.30601 13.368 5.40139 13.3284 5.47172 13.2581C5.54204 13.1878 5.58155 13.0924 5.58155 12.993V11.0069C5.58155 10.9074 5.54206 10.8121 5.47175 10.7417C5.40144 10.6714 5.30608 10.6319 5.20664 10.6319V10.6317ZM4.83164 12.618H3.59532V11.3819H4.83155L4.83164 12.618ZM8.73061 10.6317H6.74438C6.64492 10.6317 6.54954 10.6712 6.47921 10.7416C6.40889 10.8119 6.36938 10.9073 6.36938 11.0067V12.993C6.36938 13.0924 6.40889 13.1878 6.47921 13.2581C6.54954 13.3284 6.64492 13.368 6.74438 13.368H8.73061C8.83007 13.368 8.92545 13.3284 8.99578 13.2581C9.0661 13.1878 9.10561 13.0924 9.10561 12.993V11.0069C9.10561 10.9074 9.0661 10.812 8.99578 10.7417C8.92545 10.6714 8.83007 10.6319 8.73061 10.6319V10.6317ZM8.35561 12.618H7.11938V11.3819H8.35561V12.618ZM12.2546 10.6317H10.2684C10.1689 10.6317 10.0736 10.6712 10.0032 10.7416C9.9329 10.8119 9.8934 10.9073 9.8934 11.0067V12.993C9.8934 13.0924 9.9329 13.1878 10.0032 13.2581C10.0736 13.3284 10.1689 13.368 10.2684 13.368H12.2546C12.3541 13.368 12.4495 13.3284 12.5198 13.2581C12.5901 13.1878 12.6296 13.0924 12.6296 12.993V11.0069C12.6296 10.9074 12.5901 10.812 12.5198 10.7417C12.4495 10.6714 12.3541 10.6319 12.2546 10.6319V10.6317ZM11.8796 12.618H10.6434V11.3819H11.8796V12.618ZM18.1853 12C18.1854 12.0742 18.1635 12.1468 18.1224 12.2086C18.0813 12.2704 18.0227 12.3187 17.9542 12.3472C17.8857 12.3758 17.8102 12.3834 17.7374 12.3691C17.6646 12.3548 17.5976 12.3192 17.5449 12.2669C17.4923 12.2145 17.4563 12.1478 17.4416 12.075C17.4269 12.0022 17.4341 11.9268 17.4623 11.8581C17.4904 11.7894 17.5383 11.7306 17.5999 11.6891C17.6614 11.6476 17.7339 11.6253 17.8081 11.625H17.8103C17.9098 11.625 18.0051 11.6645 18.0755 11.7348C18.1458 11.8052 18.1853 11.9005 18.1853 12ZM17.1601 12C17.1602 12.0742 17.1383 12.1468 17.0972 12.2086C17.0561 12.2704 16.9976 12.3186 16.9291 12.3471C16.8605 12.3757 16.7851 12.3833 16.7123 12.369C16.6394 12.3547 16.5725 12.3191 16.5198 12.2668C16.4672 12.2144 16.4313 12.1477 16.4166 12.0749C16.4019 12.0022 16.409 11.9267 16.4372 11.858C16.4654 11.7894 16.5132 11.7306 16.5748 11.6891C16.6363 11.6476 16.7088 11.6253 16.783 11.625H16.7851C16.8846 11.625 16.98 11.6645 17.0503 11.7348C17.1206 11.8052 17.1601 11.9005 17.1601 12ZM16.135 12C16.1351 12.0742 16.1132 12.1468 16.0721 12.2086C16.0309 12.2704 15.9724 12.3186 15.9039 12.3471C15.8354 12.3757 15.7599 12.3833 15.6871 12.369C15.6143 12.3547 15.5473 12.3191 15.4947 12.2668C15.4421 12.2144 15.4061 12.1477 15.3914 12.0749C15.3767 12.0022 15.3839 11.9267 15.412 11.858C15.4402 11.7894 15.4881 11.7306 15.5496 11.6891C15.6112 11.6476 15.6837 11.6253 15.7579 11.625H15.76C15.8594 11.625 15.9548 11.6645 16.0252 11.7348C16.0955 11.8052 16.135 11.9005 16.135 12ZM1.83389 16.6777C1.62126 16.678 1.4174 16.7625 1.26702 16.9129C1.11664 17.0632 1.03202 17.2671 1.03172 17.4797V23.1978C1.03197 23.4105 1.11657 23.6144 1.26695 23.7648C1.41733 23.9152 1.62122 23.9998 1.83389 24H22.1661C22.3788 23.9998 22.5827 23.9152 22.7331 23.7648C22.8834 23.6144 22.968 23.4105 22.9683 23.1978V17.4797C22.968 17.267 22.8834 17.0631 22.7331 16.9128C22.5827 16.7624 22.3788 16.6778 22.1661 16.6776H20.3215V15.6609H22.1661C22.3788 15.6607 22.5827 15.5761 22.7331 15.4257C22.8834 15.2753 22.968 15.0714 22.9683 14.8588V9.141C22.968 8.92836 22.8834 8.72453 22.733 8.57419C22.5826 8.42386 22.3787 8.3393 22.1661 8.33906H20.3215V7.32225H22.1661C22.3787 7.32201 22.5826 7.23746 22.733 7.08712C22.8834 6.93679 22.968 6.73295 22.9683 6.52031V0.802125C22.968 0.589456 22.8834 0.38557 22.7331 0.235194C22.5827 0.0848193 22.3788 0.000235713 22.1661 0L1.83389 0C1.62123 0.000235713 1.41733 0.0848193 1.26695 0.235194C1.11657 0.38557 1.03197 0.589456 1.03172 0.802125V6.52031C1.03197 6.73298 1.11657 6.93687 1.26695 7.08724C1.41733 7.23762 1.62123 7.3222 1.83389 7.32244H3.67857V8.33906H1.83389C1.62126 8.3393 1.4174 8.42386 1.26702 8.57419C1.11664 8.72453 1.03202 8.92836 1.03172 9.141V14.859C1.03202 15.0716 1.11664 15.2754 1.26701 15.4258C1.41739 15.5761 1.62125 15.6607 1.83389 15.6609H3.67857V16.6776L1.83389 16.6777ZM22.2183 17.4797V23.1978C22.2181 23.2116 22.2125 23.2248 22.2028 23.2345C22.1931 23.2443 22.1799 23.2498 22.1661 23.25H1.83389C1.82011 23.2498 1.80695 23.2443 1.79721 23.2345C1.78746 23.2248 1.7819 23.2116 1.78172 23.1978V17.4797C1.78191 17.4659 1.78746 17.4528 1.79721 17.443C1.80695 17.4333 1.82012 17.4277 1.83389 17.4276H22.1661C22.1799 17.4277 22.1931 17.4333 22.2028 17.443C22.2125 17.4528 22.2181 17.4659 22.2183 17.4797ZM1.78172 6.52031V0.802125C1.78191 0.788349 1.78746 0.77519 1.79721 0.765452C1.80695 0.755715 1.82012 0.75017 1.83389 0.75H22.1661C22.1799 0.75017 22.1931 0.755715 22.2028 0.765452C22.2125 0.77519 22.2181 0.788349 22.2183 0.802125V6.52031C22.2181 6.53409 22.2125 6.54725 22.2028 6.55699C22.1931 6.56672 22.1799 6.57227 22.1661 6.57244H1.83389C1.82012 6.57227 1.80695 6.56672 1.79721 6.55699C1.78746 6.54725 1.78191 6.53409 1.78172 6.52031ZM4.42857 7.32244H19.5715V8.33906H4.42857V7.32244ZM1.78172 14.859V9.141C1.78191 9.12722 1.78746 9.11406 1.79721 9.10433C1.80695 9.09459 1.82012 9.08904 1.83389 9.08887H22.1661C22.1799 9.08904 22.1931 9.09459 22.2028 9.10433C22.2125 9.11406 22.2181 9.12722 22.2183 9.141V14.859C22.2181 14.8727 22.2125 14.8859 22.2028 14.8956C22.1931 14.9054 22.1799 14.9109 22.1661 14.9111H1.83389C1.82011 14.9109 1.80695 14.9054 1.79721 14.8956C1.78746 14.8859 1.7819 14.8727 1.78172 14.859ZM4.42857 15.6609H19.5715V16.6776H4.42857V15.6609ZM19.9681 21.5255C20.2027 21.5255 20.4322 21.4559 20.6273 21.3255C20.8224 21.1951 20.9745 21.0098 21.0643 20.7929C21.1541 20.5761 21.1776 20.3375 21.1318 20.1073C21.086 19.8771 20.973 19.6657 20.807 19.4998C20.6411 19.3338 20.4296 19.2208 20.1994 19.1751C19.9692 19.1293 19.7306 19.1528 19.5138 19.2427C19.297 19.3325 19.1117 19.4846 18.9813 19.6798C18.851 19.8749 18.7814 20.1044 18.7815 20.3391C18.7819 20.6536 18.907 20.9552 19.1295 21.1776C19.3519 21.4 19.6535 21.5251 19.9681 21.5255ZM19.9681 19.9023C20.0544 19.9023 20.1388 19.9279 20.2106 19.9759C20.2824 20.0238 20.3384 20.092 20.3714 20.1718C20.4045 20.2516 20.4131 20.3394 20.3963 20.424C20.3794 20.5087 20.3378 20.5865 20.2768 20.6476C20.2157 20.7087 20.1379 20.7502 20.0532 20.7671C19.9685 20.7839 19.8808 20.7753 19.801 20.7422C19.7212 20.7092 19.653 20.6532 19.605 20.5814C19.5571 20.5096 19.5315 20.4252 19.5315 20.3389C19.5316 20.2231 19.5776 20.1121 19.6595 20.0303C19.7413 19.9484 19.8523 19.9024 19.9681 19.9023ZM3.22032 21.707H5.20655C5.30601 21.707 5.40139 21.6675 5.47172 21.5971C5.54204 21.5268 5.58155 21.4314 5.58155 21.332V19.3457C5.58155 19.2463 5.54204 19.1509 5.47172 19.0806C5.40139 19.0102 5.30601 18.9707 5.20655 18.9707H3.22032C3.12086 18.9707 3.02548 19.0102 2.95515 19.0806C2.88483 19.1509 2.84532 19.2463 2.84532 19.3457V21.332C2.84532 21.4314 2.88483 21.5268 2.95515 21.5971C3.02548 21.6675 3.12086 21.707 3.22032 21.707ZM3.59532 19.7207H4.83155V20.957H3.59532V19.7207ZM6.74429 21.707H8.73052C8.82998 21.707 8.92536 21.6675 8.99569 21.5971C9.06601 21.5268 9.10552 21.4314 9.10552 21.332V19.3457C9.10552 19.2463 9.06601 19.1509 8.99569 19.0806C8.92536 19.0102 8.82998 18.9707 8.73052 18.9707H6.74438C6.64492 18.9707 6.54954 19.0102 6.47921 19.0806C6.40889 19.1509 6.36938 19.2463 6.36938 19.3457V21.332C6.36938 21.4314 6.40889 21.5268 6.47921 21.5971C6.54954 21.6675 6.64492 21.707 6.74438 21.707H6.74429ZM7.11929 19.7207H8.35552V20.957H7.11938L7.11929 19.7207ZM10.2683 21.707H12.2545C12.354 21.707 12.4494 21.6675 12.5197 21.5971C12.59 21.5268 12.6295 21.4314 12.6295 21.332V19.3457C12.6295 19.2463 12.59 19.1509 12.5197 19.0806C12.4494 19.0102 12.354 18.9707 12.2545 18.9707H10.2684C10.1689 18.9707 10.0736 19.0102 10.0032 19.0806C9.9329 19.1509 9.8934 19.2463 9.8934 19.3457V21.332C9.8934 21.4314 9.9329 21.5268 10.0032 21.5971C10.0736 21.6675 10.1689 21.707 10.2684 21.707H10.2683ZM10.6433 19.7207H11.8795V20.957H10.6434L10.6433 19.7207ZM17.4342 20.3391C17.4341 20.2899 17.4437 20.2411 17.4624 20.1957C17.4812 20.1502 17.5087 20.1088 17.5434 20.074C17.5781 20.0392 17.6194 20.0115 17.6648 19.9927C17.7103 19.9738 17.759 19.9641 17.8081 19.9641H17.8103C17.8844 19.9643 17.9568 19.9865 18.0183 20.0278C18.0799 20.0691 18.1278 20.1278 18.156 20.1963C18.1842 20.2648 18.1915 20.3402 18.1769 20.4129C18.1623 20.4856 18.1265 20.5523 18.074 20.6046C18.0215 20.6569 17.9547 20.6926 17.882 20.7069C17.8093 20.7213 17.7339 20.7138 17.6655 20.6854C17.597 20.657 17.5385 20.6089 17.4973 20.5473C17.4562 20.4856 17.4342 20.4132 17.4342 20.3391ZM16.4091 20.3391C16.409 20.2899 16.4186 20.2411 16.4373 20.1957C16.456 20.1502 16.4836 20.1088 16.5183 20.074C16.553 20.0392 16.5943 20.0115 16.6397 19.9927C16.6851 19.9738 16.7338 19.9641 16.783 19.9641H16.7851C16.8593 19.9643 16.9317 19.9864 16.9932 20.0278C17.0547 20.0691 17.1026 20.1277 17.1309 20.1963C17.1591 20.2648 17.1664 20.3402 17.1518 20.4129C17.1372 20.4855 17.1014 20.5522 17.0489 20.6046C16.9964 20.6569 16.9296 20.6925 16.8569 20.7069C16.7842 20.7213 16.7088 20.7138 16.6404 20.6854C16.5719 20.657 16.5134 20.6089 16.4722 20.5473C16.4311 20.4856 16.4091 20.4132 16.4091 20.3391ZM15.384 20.3391C15.3838 20.2899 15.3934 20.2411 15.4122 20.1957C15.4309 20.1502 15.4584 20.1088 15.4931 20.074C15.5279 20.0392 15.5691 20.0115 15.6146 19.9927C15.66 19.9738 15.7087 19.9641 15.7579 19.9641H15.76C15.8341 19.9643 15.9065 19.9864 15.968 20.0278C16.0296 20.0691 16.0775 20.1277 16.1057 20.1963C16.1339 20.2648 16.1412 20.3402 16.1266 20.4129C16.112 20.4855 16.0762 20.5522 16.0238 20.6046C15.9713 20.6569 15.9045 20.6925 15.8317 20.7069C15.759 20.7213 15.6837 20.7138 15.6152 20.6854C15.5468 20.657 15.4882 20.6089 15.4471 20.5473C15.4059 20.4856 15.384 20.4132 15.384 20.3391Z"
                                fill="black" />
                        </g>
                        <defs>
                            <clipPath id="clip0_22_80">
                                <rect width="24" height="24" fill="white" />
                            </clipPath>
                        </defs>
                    </svg>