<svg xmlns="http://www.w3.org/2000/svg" width="24" height="24" viewBox="0 0 24 24" fill="none">
                        <g clip-path="url(#clip0_22_84)">
                            <path
                                d="M18.9383 3.53338C16.7759 2.48379 14.4036 1.93846 12 1.93846C9.59637 1.93846 7.22406 2.48379 5.0617 3.53338C4.98539 3.57047 4.92392 3.63235 4.88732 3.7089C4.85073 3.78544 4.84117 3.87214 4.86021 3.95482C4.87926 4.0375 4.92578 4.11128 4.99218 4.1641C5.05857 4.21693 5.14092 4.24567 5.22577 4.24565H18.7743C18.8592 4.24567 18.9415 4.21693 19.0079 4.1641C19.0743 4.11128 19.1208 4.0375 19.1399 3.95482C19.1589 3.87214 19.1494 3.78544 19.1128 3.7089C19.0762 3.63235 19.0147 3.57047 18.9384 3.53338H18.9383ZM7.12786 3.49565C10.2891 2.43318 13.7109 2.43318 16.8721 3.49565H7.12786ZM10.0973 7.36157C10.0972 7.31238 10.1068 7.26365 10.1255 7.21817C10.1442 7.17269 10.1718 7.13135 10.2065 7.09651C10.2412 7.06168 10.2825 7.03404 10.3279 7.01517C10.3733 6.99631 10.422 6.98659 10.4712 6.98657H10.4735C10.5476 6.98679 10.62 7.00897 10.6815 7.05031C10.743 7.09165 10.7909 7.1503 10.8191 7.21884C10.8473 7.28738 10.8546 7.36275 10.84 7.43541C10.8254 7.50808 10.7896 7.5748 10.7371 7.62713C10.6846 7.67946 10.6178 7.71507 10.5451 7.72944C10.4724 7.74382 10.397 7.73633 10.3286 7.70791C10.2601 7.6795 10.2016 7.63143 10.1605 7.56979C10.1193 7.50815 10.0973 7.43569 10.0973 7.36157ZM11.625 7.36157C11.6249 7.31238 11.6345 7.26366 11.6532 7.21818C11.6719 7.1727 11.6994 7.13136 11.7342 7.09653C11.7689 7.0617 11.8101 7.03405 11.8556 7.01519C11.901 6.99632 11.9497 6.98659 11.9989 6.98657H12.0011C12.0752 6.98679 12.1476 7.00897 12.2092 7.05031C12.2707 7.09165 12.3186 7.1503 12.3468 7.21884C12.375 7.28738 12.3823 7.36275 12.3677 7.43541C12.3531 7.50808 12.3173 7.5748 12.2648 7.62713C12.2123 7.67946 12.1455 7.71507 12.0727 7.72944C12 7.74382 11.9247 7.73633 11.8562 7.70791C11.7878 7.6795 11.7293 7.63143 11.6881 7.56979C11.647 7.50815 11.625 7.43569 11.625 7.36157ZM13.1527 7.36157C13.1526 7.31239 13.1621 7.26366 13.1809 7.21818C13.1996 7.1727 13.2271 7.13136 13.2618 7.09653C13.2966 7.0617 13.3378 7.03406 13.3832 7.01519C13.4287 6.99632 13.4773 6.98659 13.5265 6.98657H13.5288C13.6029 6.98679 13.6753 7.00897 13.7369 7.05031C13.7984 7.09165 13.8463 7.1503 13.8745 7.21884C13.9027 7.28738 13.91 7.36275 13.8954 7.43541C13.8808 7.50808 13.845 7.5748 13.7925 7.62713C13.74 7.67946 13.6732 7.71507 13.6004 7.72944C13.5277 7.74382 13.4524 7.73633 13.3839 7.70791C13.3155 7.6795 13.257 7.63143 13.2158 7.56979C13.1747 7.50815 13.1527 7.43569 13.1527 7.36157ZM23.1732 4.86899H22.3696V4.48335C22.3712 4.27443 22.3209 4.06838 22.2233 3.88365C22.1258 3.69892 21.9839 3.54127 21.8104 3.42482C18.9205 1.44951 15.5005 0.394843 12 0.39946C8.49952 0.394893 5.07956 1.44955 2.18963 3.42482C2.01617 3.54127 1.87429 3.69891 1.77669 3.88363C1.67909 4.06835 1.62881 4.27439 1.63036 4.4833V4.86899H0.826828C0.607608 4.86924 0.397438 4.95644 0.24243 5.11145C0.0874219 5.26647 0.000235727 5.47665 0 5.69587L0 10.3224C0.000248132 10.5416 0.0874398 10.7518 0.242446 10.9068C0.397453 11.0618 0.607616 11.149 0.826828 11.1493H1.63036V19.3727C1.63126 20.0124 1.84164 20.6342 2.22934 21.143C2.61703 21.6519 3.16071 22.0198 3.77723 22.1904C3.78561 22.2233 3.79842 22.2548 3.8153 22.2842L4.46686 23.413C4.49977 23.47 4.54711 23.5173 4.60411 23.5502C4.66112 23.5831 4.72578 23.6005 4.79161 23.6005H6.6217C6.68753 23.6005 6.75219 23.5831 6.8092 23.5502C6.8662 23.5173 6.91354 23.47 6.94645 23.413L7.56755 22.3371C7.57516 22.3238 7.58194 22.31 7.58784 22.2959H15.9776C15.9859 22.3301 15.9991 22.3631 16.0167 22.3937L16.6051 23.413C16.6381 23.47 16.6854 23.5173 16.7424 23.5502C16.7994 23.5831 16.8641 23.6005 16.9299 23.6005H18.76C18.8258 23.6005 18.8905 23.5831 18.9475 23.5502C19.0045 23.5173 19.0518 23.47 19.0847 23.413L19.696 22.3542C19.7092 22.3313 19.7199 22.3072 19.728 22.2821C20.4508 22.2112 21.1214 21.8742 21.6096 21.3366C22.0978 20.7989 22.3687 20.0989 22.3696 19.3726V11.1493H23.1732C23.3924 11.149 23.6025 11.0618 23.7576 10.9068C23.9126 10.7518 23.9998 10.5416 24 10.3224V5.69587C23.9998 5.47665 23.9126 5.26647 23.7576 5.11145C23.6026 4.95644 23.3924 4.86924 23.1732 4.86899ZM2.38036 4.4833C2.37852 4.39647 2.39884 4.31061 2.4394 4.23381C2.47997 4.15702 2.53944 4.09183 2.6122 4.04441C5.37433 2.14483 8.64775 1.12787 12 1.12787C15.3523 1.12787 18.6257 2.14483 21.3878 4.04441C21.461 4.09138 21.5208 4.15647 21.5615 4.23338C21.6021 4.31028 21.6221 4.39637 21.6196 4.4833V4.86894H2.38036V4.4833ZM21.6196 19.1271H2.38036V5.61899H7.4707V8.16529C7.47109 8.54559 7.62233 8.9102 7.89125 9.17912C8.16016 9.44803 8.52478 9.59928 8.90508 9.59966H15.0952C15.4755 9.59928 15.8401 9.44803 16.109 9.17912C16.3779 8.9102 16.5291 8.54559 16.5295 8.16529V5.61899H21.6196V19.1271ZM8.2207 5.61899H15.7793V8.16529C15.7792 8.34675 15.707 8.52074 15.5787 8.64905C15.4504 8.77736 15.2764 8.84951 15.095 8.84966H8.90484C8.72342 8.84945 8.5495 8.77727 8.42123 8.64897C8.29297 8.52066 8.22085 8.34671 8.2207 8.16529V5.61899ZM0.826828 10.3993C0.806531 10.399 0.787138 10.3908 0.772785 10.3765C0.758431 10.3621 0.750255 10.3427 0.75 10.3224V5.69587C0.750255 5.67556 0.75843 5.65617 0.772781 5.64181C0.787133 5.62745 0.806527 5.61926 0.826828 5.61899H1.63036V10.3993H0.826828ZM6.40495 22.8505H5.00808L4.68792 22.2959H6.72534L6.40495 22.8505ZM18.5433 22.8505H17.1465L16.8263 22.2959H18.8637L18.5433 22.8505ZM19.4463 21.5459H4.55358C4.06515 21.5452 3.59115 21.3803 3.20781 21.0776C2.82448 20.7749 2.55408 20.3521 2.44012 19.8771H21.5599C21.4459 20.3521 21.1755 20.7749 20.7922 21.0776C20.4089 21.3803 19.9349 21.5452 19.4464 21.5459H19.4463ZM23.25 10.3224C23.2497 10.3427 23.2416 10.3621 23.2272 10.3765C23.2129 10.3908 23.1935 10.399 23.1732 10.3993H22.3696V5.61899H23.1732C23.1935 5.61926 23.2129 5.62745 23.2272 5.64181C23.2416 5.65617 23.2497 5.67556 23.25 5.69587V10.3224Z"
                                fill="black" />
                        </g>
                        <defs>
                            <clipPath id="clip0_22_84">
                                <rect width="24" height="24" fill="white" />
                            </clipPath>
                        </defs>
                    </svg>