<svg xmlns="http://www.w3.org/2000/svg" width="24" height="24" viewBox="0 0 24 24" fill="none">
    <g clip-path="url(#clip0_20_38)">
        <path
            d="M6.79688 24H17.2031C17.6132 23.9995 18.0064 23.8364 18.2964 23.5464C18.5864 23.2564 18.7495 22.8632 18.75 22.4531V1.54688C18.7495 1.13676 18.5864 0.743583 18.2964 0.45359C18.0064 0.163597 17.6132 0.000471436 17.2031 0L6.79688 0C6.38676 0.000471436 5.99358 0.163597 5.70359 0.45359C5.4136 0.743583 5.25047 1.13676 5.25 1.54688V22.4531C5.25047 22.8632 5.4136 23.2564 5.70359 23.5464C5.99358 23.8364 6.38676 23.9995 6.79688 24ZM6 1.54688C6.00024 1.3356 6.08427 1.13305 6.23366 0.98366C6.38305 0.834268 6.5856 0.750236 6.79688 0.75H17.2031C17.4144 0.750236 17.6169 0.834268 17.7663 0.98366C17.9157 1.13305 17.9998 1.3356 18 1.54688V22.4531C17.9998 22.6644 17.9157 22.8669 17.7663 23.0163C17.6169 23.1657 17.4144 23.2498 17.2031 23.25H6.79688C6.5856 23.2498 6.38305 23.1657 6.23366 23.0163C6.08427 22.8669 6.00024 22.6644 6 22.4531V1.54688ZM12 22.4083C12.2132 22.4083 12.4217 22.3451 12.599 22.2266C12.7763 22.1082 12.9145 21.9398 12.9961 21.7428C13.0777 21.5458 13.099 21.329 13.0574 21.1199C13.0158 20.9107 12.9131 20.7186 12.7623 20.5678C12.6116 20.4171 12.4195 20.3144 12.2103 20.2728C12.0012 20.2312 11.7844 20.2525 11.5874 20.3341C11.3904 20.4157 11.222 20.5539 11.1036 20.7312C10.9851 20.9085 10.9219 21.117 10.9219 21.3302C10.9222 21.616 11.0359 21.8901 11.238 22.0922C11.4401 22.2943 11.7142 22.408 12 22.4083ZM12 21.0021C12.0649 21.0021 12.1283 21.0213 12.1823 21.0574C12.2363 21.0934 12.2783 21.1447 12.3031 21.2046C12.328 21.2646 12.3345 21.3306 12.3218 21.3942C12.3092 21.4579 12.2779 21.5163 12.232 21.5622C12.1861 21.6081 12.1277 21.6393 12.064 21.652C12.0004 21.6647 11.9344 21.6582 11.8744 21.6333C11.8145 21.6085 11.7632 21.5664 11.7272 21.5125C11.6911 21.4585 11.6719 21.3951 11.6719 21.3302C11.672 21.2432 11.7066 21.1598 11.7681 21.0983C11.8296 21.0368 11.913 21.0022 12 21.0021ZM11.625 1.713C11.6249 1.66382 11.6344 1.61509 11.6532 1.56961C11.6719 1.52413 11.6994 1.48279 11.7341 1.44796C11.7689 1.41313 11.8101 1.38549 11.8555 1.36662C11.9009 1.34775 11.9496 1.33802 11.9988 1.338H12.0012C12.0753 1.33823 12.1477 1.36042 12.2092 1.40177C12.2707 1.44311 12.3186 1.50176 12.3468 1.5703C12.375 1.63885 12.3823 1.71421 12.3677 1.78687C12.353 1.85954 12.3172 1.92625 12.2648 1.97858C12.2123 2.0309 12.1454 2.0665 12.0727 2.08088C12 2.09525 11.9247 2.08776 11.8562 2.05934C11.7878 2.03092 11.7293 1.98286 11.6881 1.92122C11.647 1.85957 11.625 1.78712 11.625 1.713Z"
            fill="black" />
    </g>
    <defs>
        <clipPath id="clip0_20_38">
            <rect width="24" height="24" fill="white" />
        </clipPath>
    </defs>
</svg>