 <svg xmlns="http://www.w3.org/2000/svg" width="24" height="24" viewBox="0 0 24 24" fill="none">
                        <path
                            d="M1.29164 18.5262H17.6449C17.9873 18.5258 18.3156 18.3896 18.5578 18.1475C18.7999 17.9053 18.9361 17.577 18.9365 17.2345V15.908C19.2486 15.8951 19.5482 15.7821 19.7911 15.5858C20.034 15.3894 20.2073 15.1202 20.2853 14.8178C21.3258 14.7327 22.2931 14.2485 22.9848 13.4665C23.6764 12.6846 24.0389 11.6654 23.9963 10.6224C23.9537 9.57926 23.5094 8.59305 22.7563 7.87008C22.0032 7.1471 20.9997 6.74338 19.9557 6.74339H9.27905C9.19404 6.38247 8.98975 6.06078 8.69922 5.83038C8.40869 5.59998 8.04892 5.47434 7.67813 5.47379H6.81938C6.71992 5.47379 6.62454 5.51329 6.55421 5.58362C6.48388 5.65395 6.44438 5.74933 6.44438 5.84879V6.06694H5.54213C5.44267 6.06694 5.34729 6.10645 5.27696 6.17678C5.20663 6.2471 5.16713 6.34249 5.16713 6.44194C5.16713 6.5414 5.20663 6.63678 5.27696 6.70711C5.34729 6.77743 5.44267 6.81694 5.54213 6.81694H6.44438V7.41994H5.54213C5.44267 7.41994 5.34729 7.45945 5.27696 7.52978C5.20663 7.6001 5.16713 7.69549 5.16713 7.79494C5.16713 7.8944 5.20663 7.98978 5.27696 8.06011C5.34729 8.13043 5.44267 8.16994 5.54213 8.16994H6.44438V8.3881C6.44438 8.48755 6.48388 8.58294 6.55421 8.65326C6.62454 8.72359 6.71992 8.7631 6.81938 8.7631H7.67813C8.04895 8.76257 8.40874 8.63693 8.69929 8.40651C8.98984 8.1761 9.19414 7.85439 9.27914 7.49344H19.9557C20.8016 7.49346 21.615 7.81885 22.2275 8.40219C22.8401 8.98553 23.2048 9.78213 23.246 10.627C23.2873 11.4718 23.002 12.3002 22.4493 12.9405C21.8966 13.5808 21.1187 13.9839 20.2769 14.0664C20.1939 13.7708 20.0195 13.5091 19.7787 13.3187C19.5379 13.1282 19.243 13.0189 18.9363 13.0062V11.6796C18.9359 11.3372 18.7997 11.0089 18.5575 10.7667C18.3154 10.5246 17.9871 10.3884 17.6446 10.388H1.29164C0.949194 10.3884 0.620884 10.5246 0.378738 10.7667C0.136591 11.0089 0.000384611 11.3372 0 11.6796L0 17.2345C0.000372206 17.577 0.136573 17.9053 0.378721 18.1475C0.620869 18.3896 0.949186 18.5258 1.29164 18.5262ZM7.67813 8.0131H7.19438V6.22379H7.67813C7.9154 6.22379 8.14296 6.31804 8.31074 6.48582C8.47852 6.6536 8.57278 6.88116 8.57278 7.11844C8.57278 7.35572 8.47852 7.58328 8.31074 7.75106C8.14296 7.91884 7.9154 8.0131 7.67813 8.0131ZM19.5807 14.4571C19.5804 14.6332 19.5141 14.8027 19.3948 14.9322C19.2755 15.0617 19.112 15.1418 18.9365 15.1565V13.7578C19.1119 13.7726 19.2754 13.8526 19.3947 13.9821C19.514 14.1115 19.5804 14.2811 19.5807 14.4571ZM0.75 11.6796C0.750161 11.536 0.807279 11.3983 0.908821 11.2968C1.01036 11.1953 1.14804 11.1381 1.29164 11.138H17.6449C17.7885 11.1381 17.9262 11.1953 18.0277 11.2968C18.1292 11.3983 18.1864 11.536 18.1865 11.6796V17.2345C18.1864 17.3781 18.1292 17.5158 18.0277 17.6174C17.9262 17.7189 17.7885 17.7761 17.6449 17.7762H1.29164C1.14803 17.7761 1.01036 17.7189 0.908818 17.6174C0.807277 17.5158 0.750161 17.3781 0.75 17.2345V11.6796ZM4.11263 16.8241C4.58083 16.8241 5.03854 16.6853 5.42787 16.4252C5.81719 16.1651 6.12064 15.7954 6.29984 15.3629C6.47905 14.9303 6.52595 14.4543 6.43463 13.9951C6.3433 13.5359 6.11785 13.1141 5.78678 12.783C5.45571 12.452 5.03389 12.2265 4.57468 12.1352C4.11547 12.0438 3.63948 12.0907 3.20693 12.2699C2.77437 12.4491 2.40466 12.7525 2.14457 13.1419C1.88447 13.5312 1.74567 13.9889 1.74572 14.4571C1.74643 15.0846 1.99602 15.6863 2.43975 16.13C2.88347 16.5737 3.4851 16.8233 4.11263 16.8241ZM4.11263 12.8401C4.43249 12.8401 4.74518 12.9349 5.01116 13.1126C5.27714 13.2902 5.48447 13.5428 5.60691 13.8383C5.72936 14.1338 5.76142 14.4589 5.69905 14.7727C5.63669 15.0864 5.48269 15.3746 5.25653 15.6008C5.03037 15.827 4.74222 15.981 4.42851 16.0434C4.1148 16.1058 3.78962 16.0738 3.4941 15.9514C3.19858 15.8291 2.94599 15.6218 2.76828 15.3558C2.59057 15.0899 2.49572 14.7772 2.49572 14.4573C2.49614 14.0286 2.66662 13.6176 2.96975 13.3144C3.27288 13.0112 3.6839 12.8406 4.11263 12.8401ZM3.04219 14.6888V14.2253C3.04219 14.1259 3.0817 14.0305 3.15202 13.9602C3.22235 13.8899 3.31773 13.8503 3.41719 13.8503C3.51664 13.8503 3.61203 13.8899 3.68235 13.9602C3.75268 14.0305 3.79219 14.1259 3.79219 14.2253V14.6888C3.79219 14.7883 3.75268 14.8836 3.68235 14.954C3.61203 15.0243 3.51664 15.0638 3.41719 15.0638C3.31773 15.0638 3.22235 15.0243 3.15202 14.954C3.0817 14.8836 3.04219 14.7883 3.04219 14.6888ZM4.43278 14.6888V14.2253C4.43278 14.1259 4.47229 14.0305 4.54262 13.9602C4.61294 13.8899 4.70833 13.8503 4.80778 13.8503C4.90724 13.8503 5.00262 13.8899 5.07295 13.9602C5.14327 14.0305 5.18278 14.1259 5.18278 14.2253V14.6888C5.18278 14.7883 5.14327 14.8836 5.07295 14.954C5.00262 15.0243 4.90724 15.0638 4.80778 15.0638C4.70833 15.0638 4.61294 15.0243 4.54262 14.954C4.47229 14.8836 4.43278 14.7883 4.43278 14.6888ZM9.46828 16.8241C9.9365 16.8241 10.3942 16.6854 10.7836 16.4253C11.1729 16.1653 11.4764 15.7956 11.6556 15.363C11.8349 14.9305 11.8818 14.4545 11.7905 13.9952C11.6992 13.536 11.4737 13.1142 11.1427 12.7831C10.8116 12.452 10.3898 12.2265 9.93059 12.1352C9.47138 12.0438 8.99538 12.0907 8.56281 12.2699C8.13024 12.4491 7.76053 12.7525 7.50042 13.1418C7.24032 13.5312 7.10152 13.9889 7.10156 14.4571C7.10226 15.0846 7.35182 15.6862 7.79551 16.1299C8.2392 16.5737 8.84078 16.8233 9.46828 16.8241ZM9.46828 12.8401C9.78814 12.8401 10.1008 12.9349 10.3668 13.1126C10.6328 13.2902 10.8401 13.5428 10.9626 13.8383C11.085 14.1338 11.1171 14.4589 11.0547 14.7727C10.9923 15.0864 10.8383 15.3746 10.6122 15.6008C10.386 15.827 10.0979 15.981 9.78416 16.0434C9.47045 16.1058 9.14528 16.0738 8.84976 15.9514C8.55424 15.8291 8.30165 15.6218 8.12394 15.3558C7.94623 15.0899 7.85138 14.7772 7.85138 14.4573C7.85178 14.0286 8.02226 13.6175 8.32539 13.3144C8.62852 13.0112 9.03955 12.8406 9.46828 12.8401ZM8.39798 14.6888V14.2253C8.39798 14.1259 8.43749 14.0305 8.50782 13.9602C8.57815 13.8899 8.67353 13.8503 8.77298 13.8503C8.87244 13.8503 8.96782 13.8899 9.03815 13.9602C9.10848 14.0305 9.14798 14.1259 9.14798 14.2253V14.6888C9.14798 14.7883 9.10848 14.8836 9.03815 14.954C8.96782 15.0243 8.87244 15.0638 8.77298 15.0638C8.67353 15.0638 8.57815 15.0243 8.50782 14.954C8.43749 14.8836 8.39798 14.7883 8.39798 14.6888ZM9.78858 14.6888V14.2253C9.78858 14.1259 9.82809 14.0305 9.89841 13.9602C9.96874 13.8899 10.0641 13.8503 10.1636 13.8503C10.263 13.8503 10.3584 13.8899 10.4287 13.9602C10.4991 14.0305 10.5386 14.1259 10.5386 14.2253V14.6888C10.5386 14.7883 10.4991 14.8836 10.4287 14.954C10.3584 15.0243 10.263 15.0638 10.1636 15.0638C10.0641 15.0638 9.96874 15.0243 9.89841 14.954C9.82809 14.8836 9.78858 14.7883 9.78858 14.6888ZM14.8239 16.8241C15.2921 16.8241 15.7499 16.6853 16.1392 16.4252C16.5285 16.1651 16.832 15.7954 17.0112 15.3629C17.1904 14.9303 17.2373 14.4543 17.1459 13.9951C17.0546 13.5359 16.8292 13.1141 16.4981 12.783C16.167 12.452 15.7452 12.2265 15.286 12.1352C14.8268 12.0438 14.3508 12.0907 13.9182 12.2699C13.4857 12.4491 13.116 12.7525 12.8559 13.1419C12.5958 13.5312 12.457 13.9889 12.457 14.4571C12.4577 15.0846 12.7073 15.6863 13.1511 16.13C13.5948 16.5737 14.1964 16.8233 14.8239 16.8241ZM14.8239 12.8401C15.1438 12.8401 15.4565 12.9349 15.7225 13.1126C15.9885 13.2902 16.1958 13.5428 16.3182 13.8383C16.4407 14.1338 16.4727 14.4589 16.4104 14.7727C16.348 15.0864 16.194 15.3746 15.9678 15.6008C15.7417 15.827 15.4535 15.981 15.1398 16.0434C14.8261 16.1058 14.5009 16.0738 14.2054 15.9514C13.9099 15.8291 13.6573 15.6218 13.4796 15.3558C13.3019 15.0899 13.207 14.7772 13.207 14.4573C13.2075 14.0286 13.3779 13.6176 13.6811 13.3144C13.9842 13.0112 14.3952 12.8406 14.8239 12.8401ZM13.7536 14.6888V14.2253C13.7536 14.1259 13.7931 14.0305 13.8635 13.9602C13.9338 13.8899 14.0292 13.8503 14.1286 13.8503C14.2281 13.8503 14.3235 13.8899 14.3938 13.9602C14.4641 14.0305 14.5036 14.1259 14.5036 14.2253V14.6888C14.5036 14.7883 14.4641 14.8836 14.3938 14.954C14.3235 15.0243 14.2281 15.0638 14.1286 15.0638C14.0292 15.0638 13.9338 15.0243 13.8635 14.954C13.7931 14.8836 13.7536 14.7883 13.7536 14.6888ZM15.1442 14.6888V14.2253C15.1442 14.1259 15.1837 14.0305 15.2541 13.9602C15.3244 13.8899 15.4198 13.8503 15.5192 13.8503C15.6187 13.8503 15.7141 13.8899 15.7844 13.9602C15.8547 14.0305 15.8942 14.1259 15.8942 14.2253V14.6888C15.8942 14.7883 15.8547 14.8836 15.7844 14.954C15.7141 15.0243 15.6187 15.0638 15.5192 15.0638C15.4198 15.0638 15.3244 15.0243 15.2541 14.954C15.1837 14.8836 15.1442 14.7883 15.1442 14.6888Z"
                            fill="black" />
                    </svg>