<svg xmlns="http://www.w3.org/2000/svg" width="24" height="24" viewBox="0 0 24 24" fill="none">
                        <g clip-path="url(#clip0_22_62)">
                            <path
                                d="M1.54688 19.0514H3.01973L2.06559 20.9882C1.96837 21.1866 1.95011 21.4146 2.01453 21.626C2.07894 21.8373 2.22121 22.0164 2.41258 22.1269C2.60394 22.2374 2.83013 22.2711 3.04539 22.2212C3.26066 22.1713 3.44895 22.0415 3.5722 21.8581L5.41655 19.1002C5.42678 19.0846 5.43585 19.0683 5.44369 19.0514H18.5563C18.5641 19.0683 18.5732 19.0846 18.5835 19.1002L20.4278 21.858C20.551 22.0415 20.7393 22.1714 20.9546 22.2213C21.1699 22.2713 21.3961 22.2376 21.5875 22.1271C21.779 22.0166 21.9213 21.8375 21.9857 21.6261C22.0501 21.4147 22.0318 21.1867 21.9345 20.9882L20.9803 19.0514H22.4531C22.8632 19.0509 23.2564 18.8878 23.5464 18.5978C23.8364 18.3078 23.9995 17.9146 24 17.5045V3.30136C23.9995 2.89125 23.8364 2.49807 23.5464 2.20808C23.2564 1.91808 22.8632 1.75496 22.4531 1.75449H1.54688C1.13676 1.75496 0.743583 1.91808 0.45359 2.20808C0.163597 2.49807 0.000471436 2.89125 0 3.30136L0 17.5045C0.000471436 17.9146 0.163597 18.3078 0.45359 18.5978C0.743583 18.8878 1.13676 19.0509 1.54688 19.0514ZM2.94872 21.4412C2.93129 21.4663 2.90504 21.484 2.87519 21.4907C2.84535 21.4973 2.81408 21.4926 2.78759 21.4773C2.76111 21.462 2.74135 21.4372 2.73224 21.408C2.72312 21.3789 2.72532 21.3473 2.73839 21.3196L3.85284 19.0575C3.85383 19.0554 3.85453 19.0534 3.85547 19.0514H4.54688L2.94872 21.4412ZM20.1472 19.0575L21.2617 21.3196C21.2748 21.3473 21.277 21.3789 21.2678 21.4081C21.2587 21.4373 21.239 21.462 21.2125 21.4773C21.186 21.4926 21.1547 21.4974 21.1248 21.4907C21.0949 21.484 21.0687 21.4663 21.0513 21.4411L19.4531 19.0514H20.1445C20.1455 19.0534 20.1462 19.0554 20.1472 19.0575ZM22.4531 18.3014H1.54688C1.3356 18.3011 1.13305 18.2171 0.98366 18.0677C0.834268 17.9183 0.750236 17.7158 0.75 17.5045V17.1529H23.25V17.5045C23.2498 17.7158 23.1657 17.9183 23.0163 18.0677C22.8669 18.2171 22.6644 18.3011 22.4531 18.3014ZM1.54688 2.50453H22.4531C22.6644 2.50477 22.8669 2.5888 23.0163 2.73819C23.1657 2.88758 23.2498 3.09014 23.25 3.30141V16.403H0.75V3.30141C0.750236 3.09014 0.834268 2.88758 0.98366 2.73819C1.13305 2.5888 1.3356 2.50477 1.54688 2.50453ZM12.3762 17.7271C12.3763 17.8014 12.3544 17.874 12.3133 17.9358C12.2722 17.9976 12.2136 18.0459 12.1451 18.0744C12.0766 18.103 12.0011 18.1106 11.9283 18.0963C11.8554 18.0821 11.7885 18.0465 11.7358 17.9942C11.6831 17.9418 11.6472 17.8751 11.6324 17.8023C11.6177 17.7295 11.6248 17.654 11.653 17.5854C11.6811 17.5167 11.729 17.4578 11.7906 17.4163C11.8521 17.3748 11.9246 17.3525 11.9988 17.3521H12.0012C12.1006 17.3521 12.196 17.3917 12.2663 17.462C12.3367 17.5323 12.3762 17.6277 12.3762 17.7271ZM3.97584 5.88535C3.97584 5.78589 4.01535 5.69051 4.08568 5.62018C4.156 5.54985 4.25139 5.51035 4.35084 5.51035H10.8899C10.9894 5.51035 11.0847 5.54985 11.1551 5.62018C11.2254 5.69051 11.2649 5.78589 11.2649 5.88535C11.2649 5.9848 11.2254 6.08018 11.1551 6.15051C11.0847 6.22084 10.9894 6.26035 10.8899 6.26035H7.99533V13.0221C7.99533 13.1216 7.95582 13.2169 7.88549 13.2873C7.81517 13.3576 7.71978 13.3971 7.62033 13.3971C7.52087 13.3971 7.42549 13.3576 7.35516 13.2873C7.28484 13.2169 7.24533 13.1216 7.24533 13.0221V6.26035H4.35084C4.25139 6.26035 4.156 6.22084 4.08568 6.15051C4.01535 6.08018 3.97584 5.9848 3.97584 5.88535ZM12.5469 6.05199C12.5258 6.0075 12.5136 5.95928 12.5112 5.9101C12.5087 5.86091 12.5159 5.81172 12.5324 5.76533C12.549 5.71894 12.5745 5.67627 12.6075 5.63973C12.6405 5.6032 12.6804 5.57353 12.7249 5.55242C12.8148 5.50977 12.9179 5.50457 13.0116 5.53796C13.1052 5.57134 13.1818 5.64057 13.2245 5.73042L16.2675 12.1416L19.3104 5.73042C19.3315 5.68593 19.3612 5.64604 19.3977 5.61301C19.4342 5.57999 19.4769 5.55448 19.5233 5.53796C19.5697 5.52143 19.6189 5.51419 19.6681 5.51668C19.7173 5.51916 19.7655 5.5313 19.81 5.55242C19.8545 5.57353 19.8943 5.6032 19.9274 5.63973C19.9604 5.67627 19.9859 5.71894 20.0024 5.76533C20.019 5.81172 20.0262 5.86091 20.0237 5.9101C20.0212 5.95928 20.0091 6.0075 19.988 6.05199L16.6063 13.177C16.5758 13.2411 16.5279 13.2952 16.4679 13.3332C16.4079 13.3711 16.3384 13.3912 16.2675 13.3912C16.1965 13.3912 16.127 13.3711 16.0671 13.3332C16.0071 13.2952 15.9591 13.2411 15.9287 13.177L12.5469 6.05199Z"
                                fill="black" />
                        </g>
                        <defs>
                            <clipPath id="clip0_22_62">
                                <rect width="24" height="24" fill="white" />
                            </clipPath>
                        </defs>
                    </svg>